<?xml version="1.0"?>
<!-- Generator: Adobe Illustrator 16.0.0, SVG Export Plug-In . SVG Version: 6.00 Build 0)  -->
<!DOCTYPE svg PUBLIC "-//W3C//DTD SVG 1.1//EN" "http://www.w3.org/Graphics/SVG/1.1/DTD/svg11.dtd">
<svg version="1.1" id="Layer_1" xmlns="http://www.w3.org/2000/svg" xmlns:xlink="http://www.w3.org/1999/xlink" x="0px" y="0px"
	 width="230.232px" height="75.969px" viewBox="0 0 230.232 75.969" style="enable-background:new 0 0 230.232 75.969;"
	 xml:space="preserve">
<style type="text/css">
<![CDATA[
	.st0{fill:#E7D8AC;}
	.st1{fill:#4F6F19;}
	.st2{fill:#B32317;}
	.st3{fill:#512C1D;}
	.st4{fill:#572700;}
	.st5{fill:#BCBEC0;}
	.st6{fill:#96A972;}
	.st7{fill:#C9AB8F;}
	.st8{fill:#6F3F0A;}
	.st9{fill:#D7876C;}
	.st10{fill:#A03123;}
]]>
</style>
<path class="st10" d="M169.65,49.77c0.061,0.073,0.078,0.076,0.146,0.1c0.038,0.006,0.081,0.014,0.146,0.014
	c0.265-0.01,0.792-0.164,1.462-0.594c0.021-0.108,0.041-0.219,0.068-0.33c0.158-0.721,0.419-1.499,0.729-2.258
	c1.499-3.707,5.61-14.444,6.365-16.551c0.036-0.121,0.072-0.24,0.093-0.342c0.071-0.31,0.097-0.64-0.077-0.978
	c-0.181-0.337-0.507-0.502-0.771-0.558c-0.323-0.074-0.632-0.062-0.953-0.034c-0.021,0.059-0.034,0.114-0.055,0.177
	c-0.774,2.106-4.866,12.85-6.362,16.558c-0.312,0.755-0.559,1.538-0.729,2.257c-0.154,0.62-0.219,1.197-0.217,1.649
	C169.489,49.338,169.582,49.653,169.65,49.77z M138.671,50.051c-0.018-0.041-0.043-0.076-0.057-0.107
	c-0.484-1.037-0.676-2.504-0.373-4.377c2.633,0.002,5.242,0.092,7.633-0.693c1.268-0.416,2.439-1.103,3.473-2.143
	c0.051-0.316,0.111-0.629,0.188-0.951c0.172-0.723,0.395-1.449,0.684-2.192c0.637-1.684,1.406-3.268,2.261-4.706
	c-0.092-1.129-0.448-2.182-1.009-3.098c-0.506-0.827-1.188-1.542-1.997-2.085c0.084,0.119,0.165,0.236,0.245,0.355
	c0.939,1.535,1.293,3.462,0.825,5.48c-0.075,0.292-0.158,0.6-0.269,0.9c-1.373,3.898-3.586,5.865-6.156,6.702
	c-2.391,0.797-5.016,0.701-7.636,0.701c-0.308,1.865-0.111,3.332,0.37,4.369C137.273,49.101,137.894,49.707,138.671,50.051z
	 M157.404,48.689c-0.017-0.035-0.025-0.074-0.043-0.115c-0.328-1.078-0.293-2.686,0.176-4.698c0.151-0.641,0.341-1.304,0.568-2.017
	c0.452-1.395,1.561-3.461,2.926-5.118c0.672-0.834,1.424-1.566,2.178-2.063c0.741-0.5,1.465-0.771,2.117-0.764
	c0.207,0.005,0.432,0.023,0.623,0.079c0.113,0.019,0.205,0.053,0.307,0.091c-0.078-0.212-0.171-0.409-0.293-0.592
	c-0.424-0.634-1.062-1.06-1.765-1.229c-0.209-0.045-0.417-0.073-0.64-0.077c-0.648-0.011-1.377,0.262-2.117,0.764
	c-0.741,0.506-1.492,1.225-2.172,2.062c-1.369,1.66-2.468,3.737-2.927,5.114c-0.229,0.705-0.418,1.375-0.569,2.017
	c-0.471,2.013-0.5,3.618-0.169,4.692C155.927,47.856,156.464,48.41,157.404,48.689z M143.003,35.573
	c0.86-0.871,1.6-1.21,2.146-1.276c-0.03-0.3-0.096-0.566-0.209-0.796c-0.231-0.513-0.582-0.819-1.01-0.922h-0.016
	c-0.57-0.131-1.499,0.083-2.668,1.265c-1.062,1.068-2.268,2.89-3.455,5.744c0.959-0.022,1.861-0.092,2.664-0.235
	C141.344,37.595,142.211,36.371,143.003,35.573z M210.193,21.368L210.193,21.368c-0.334-0.35-0.727-0.621-1.117-0.804
	c0.312,0.708,0.371,1.501,0.184,2.221c-0.258,1.084-0.945,2.068-1.889,2.745c-0.709,0.496-1.568,0.814-2.498,0.827
	c-0.014,0.064-0.037,0.123-0.053,0.194c-0.047,0.194-0.066,0.452,0.031,0.716c0.115,0.28,0.344,0.514,0.604,0.639l0.066,0.027
	l0.068,0.022c0.041,0.015,0.066,0.021,0.104,0.031l0,0c1.283,0.295,2.502-0.057,3.441-0.729c0.947-0.664,1.629-1.652,1.893-2.735
	C211.269,23.462,211.07,22.265,210.193,21.368z M209.503,48.337c-0.252-0.473-0.402-0.981-0.395-1.518
	c0.283,0.222,0.613,0.368,0.957,0.451c0.639,0.153,1.346,0.067,1.973-0.279c0.621-0.335,1.141-0.972,1.348-1.804
	c0.008-0.095,0.033-0.185,0.043-0.281c0.236-1.473-0.533-2.967-1.967-3.518c0.219,0.555,0.303,1.168,0.209,1.777
	c-0.014,0.105-0.029,0.19-0.061,0.285c-0.188,0.837-0.709,1.473-1.332,1.812c-0.623,0.342-1.338,0.42-1.986,0.277
	c-0.33-0.08-0.656-0.234-0.941-0.445c-0.012,0.777,0.289,1.487,0.803,2.123C208.507,47.656,208.974,48.036,209.503,48.337z
	 M222.216,37.413c0.322,0.082,0.691,0.111,1.09,0.102c0.93-0.022,1.682-0.377,2.174-0.902c0.498-0.521,0.75-1.155,0.904-1.748
	c0.004-0.022,0.004-0.056,0.008-0.076c0.408-1.735-0.037-3.41-1.064-4.713c-0.42-0.545-0.941-1.031-1.549-1.447
	c0.885,1.263,1.244,2.821,0.852,4.432l-0.021,0.067c-0.133,0.596-0.389,1.234-0.895,1.756c-0.486,0.526-1.236,0.874-2.166,0.897
	c-0.406,0.013-0.768-0.021-1.107-0.102c-0.057-0.016-0.121-0.032-0.182-0.055c0.059,0.237,0.16,0.458,0.273,0.673
	C220.892,36.833,221.474,37.247,222.216,37.413z M193.72,49.432c0.062,0.078,0.074,0.088,0.158,0.115
	c0.033,0.009,0.082,0.012,0.146,0.012c0.396-0.007,0.863-0.125,1.402-0.451c0.029-0.147,0.07-0.298,0.107-0.464
	c0.156-0.716,0.416-1.498,0.721-2.263c1.51-3.712,5.605-14.449,6.373-16.549c0.033-0.119,0.074-0.233,0.104-0.342
	c0.064-0.311,0.086-0.642-0.084-0.983c-0.184-0.34-0.525-0.502-0.773-0.557c-0.326-0.071-0.639-0.061-0.953-0.034
	c-0.021,0.055-0.035,0.118-0.059,0.175c-0.756,2.108-4.865,12.85-6.361,16.557c-0.309,0.757-0.564,1.548-0.744,2.271
	c-0.139,0.62-0.217,1.19-0.215,1.639C193.535,49.01,193.632,49.325,193.72,49.432z M102.031,54.131
	c-0.557,0.023-1.123,0.034-1.61,0.037c-0.021,0.049-0.034,0.099-0.05,0.168c-0.036,0.15-0.07,0.355-0.027,0.609
	c0.605,0.355,1.253,0.674,1.932,0.951c0.455-0.008,0.989-0.02,1.517-0.037c0.821-0.018,1.623-0.046,1.954-0.033
	c0.53,0.013,1.034-0.102,1.422-0.345c0.604-0.362,0.944-0.923,1.189-1.471c0.25-0.559,0.42-1.134,0.642-1.665v-0.002l6.2-15.928
	c0.748,0.062,1.435,0.165,2.089,0.324c1.554,0.366,2.839,0.963,3.885,1.737c-1.221-1.61-3.063-2.857-5.649-3.468
	c-0.652-0.15-1.342-0.261-2.088-0.329l-6.195,15.932v0.017c-0.219,0.513-0.396,1.095-0.653,1.646
	c-0.241,0.554-0.574,1.114-1.178,1.477c-0.393,0.237-0.885,0.354-1.427,0.341C103.658,54.078,102.854,54.111,102.031,54.131z
	 M182.061,48.273c0.152,0.137,0.327,0.252,0.636,0.326c0.204,0.047,0.436,0.072,0.732,0.067c-0.013-0.614,0.092-1.439,0.322-2.441
	c0.314-1.292,0.818-2.882,1.492-4.759c2.453-6.804,3.631-9.776,4.221-11.228c0.057-0.155,0.1-0.292,0.133-0.426
	c0.094-0.39,0.07-0.811-0.15-1.134c-0.229-0.338-0.555-0.465-0.814-0.531c-0.324-0.069-0.622-0.06-0.79-0.049
	c-0.038,0.128-0.081,0.264-0.142,0.41c-0.588,1.448-1.773,4.426-4.219,11.227c-0.684,1.885-1.184,3.477-1.484,4.762
	c-0.254,1.059-0.357,1.928-0.332,2.559C181.703,47.691,181.86,48.053,182.061,48.273z M133.594,24.758
	c0.601-2.576,0.144-5.212-1.335-7.389c-0.58-0.852-1.312-1.625-2.188-2.304c0.158,0.189,0.295,0.381,0.429,0.572
	c1.47,2.172,1.943,4.818,1.324,7.392c-0.843,3.62-3.751,7.11-8.725,9.241c0.702,0.511,1.333,1.074,1.902,1.684
	C129.88,31.793,132.751,28.354,133.594,24.758z M130.005,41.344c-0.077-0.251-0.168-0.516-0.258-0.77
	c-0.844-2.341-2.262-4.449-4.244-6.068c1.086,1.279,1.918,2.757,2.488,4.338c1.071,2.978,1.225,6.318,0.467,9.554
	c-0.902,3.857-3.112,7.567-6.63,10.281c-3.502,2.709-8.316,4.404-14.361,4.274c-1.276-0.032-2.507-0.186-3.696-0.468
	c-2.899-0.681-5.481-2.053-7.603-3.878c2.369,2.68,5.615,4.731,9.366,5.616c1.177,0.274,2.42,0.428,3.689,0.459
	c6.056,0.135,10.862-1.562,14.37-4.271c3.517-2.712,5.727-6.422,6.633-10.275c0.088-0.4,0.166-0.808,0.234-1.214
	C129.658,46.662,129.552,44.02,130.005,41.344z M149.887,49.164c-1.649,2.057-3.327,3.424-5.038,4.288
	c-1.986,0.998-3.988,1.301-5.979,1.286c-0.848-0.01-1.656-0.102-2.395-0.281l-0.031-0.005c-1.119-0.259-2.084-0.708-2.915-1.309
	c1.08,1.467,2.641,2.562,4.677,3.046l0.031,0.004c0.742,0.177,1.54,0.268,2.398,0.279c1.982,0.018,3.986-0.29,5.979-1.291
	c1.56-0.787,3.1-1.998,4.609-3.773C150.674,50.742,150.222,49.992,149.887,49.164z M175.554,50.289
	c-0.927,1.24-1.867,2.125-2.859,2.719c-1.248,0.76-2.551,1.029-3.854,1.031c-0.65-0.004-1.23-0.072-1.783-0.205
	c-1.394-0.314-2.476-1.044-3.227-2.008c-1.912,1.701-4.174,2.396-6.582,2.342c-0.668,0-1.287-0.082-1.893-0.227
	c-0.999-0.232-1.896-0.631-2.673-1.182c1.058,1.436,2.562,2.482,4.435,2.918c0.6,0.143,1.235,0.221,1.904,0.232
	c2.39,0.047,4.664-0.645,6.574-2.342c0.746,0.953,1.844,1.678,3.225,1.998c0.547,0.137,1.139,0.205,1.775,0.199
	c1.318,0,2.613-0.271,3.856-1.018c0.931-0.572,1.823-1.393,2.7-2.521C176.506,51.697,175.966,51.041,175.554,50.289z
	 M203.687,47.438c-0.016-0.025-0.033-0.051-0.045-0.072c-0.178-0.213-0.365-0.277-0.502-0.314c-0.35-0.072-0.537,0.002-0.58,0.002
	l-0.168,0.038c-0.082,0.002-0.195,0.003-0.367-0.001c-0.111-0.004-0.178-0.012-0.305-0.047c-0.004,0-0.021,0-0.031-0.002
	c-1.697,3.027-3.209,4.691-4.674,5.611c-1.518,0.963-2.932,1.04-4.105,1.061c-0.625,0.012-1.189-0.045-1.73-0.17
	c-1.213-0.274-2.152-0.938-2.801-1.839c-1.52,1.267-3.442,2.083-5.831,2.128c-0.917,0.017-1.764-0.059-2.538-0.25
	c-0.879-0.199-1.652-0.523-2.333-0.971c0.919,1.354,2.319,2.307,4.084,2.705c0.778,0.179,1.628,0.264,2.55,0.25
	c2.382-0.039,4.312-0.859,5.83-2.129c0.635,0.896,1.59,1.56,2.789,1.842c0.545,0.118,1.113,0.178,1.744,0.161
	c1.156-0.013,2.592-0.095,4.105-1.055c1.51-0.953,3.09-2.717,4.877-5.989c0.053-0.098,0.102-0.192,0.127-0.312
	c0.02-0.076,0.029-0.168,0.021-0.256C203.755,47.693,203.708,47.57,203.687,47.438z M104.404,24.772
	c0.006-0.158,0.031-0.313,0.062-0.456c0.129-0.548,0.446-1.053,0.929-1.406c0.344-0.26,0.785-0.441,1.285-0.518
	c0.523-0.87,1.263-1.658,2.287-2.327c0.854-0.563,1.919-1.057,3.231-1.432l0.921-2.292c-2.618,0.375-4.544,1.079-5.916,1.985
	c-1.563,1.033-2.462,2.31-2.939,3.784c-0.036,0.083-0.067,0.191-0.09,0.289c-0.169,0.7-0.123,1.507,0.126,2.131
	C104.327,24.611,104.368,24.696,104.404,24.772z M222.158,41.523L222.158,41.523c-1.271-1.768-2.803-3.452-3.945-4.913
	c-0.557-0.739-1.012-1.42-1.305-2.011c-0.293-0.581-0.369-1.044-0.32-1.356c0.02-0.031,0.02-0.065,0.033-0.09
	c0.193-0.792,0.662-1.239,1.371-1.521c0.338-0.125,0.725-0.197,1.141-0.218c0.094-0.094,0.189-0.178,0.295-0.249
	c0.367-0.24,0.805-0.352,1.244-0.315c-0.035-0.045-0.07-0.088-0.129-0.136c-0.418-0.396-1.086-0.736-1.822-0.906
	c-0.848-0.207-1.781-0.177-2.486,0.092c-0.717,0.287-1.182,0.72-1.383,1.519c0,0.026-0.002,0.063-0.016,0.099
	c-0.061,0.3,0.016,0.769,0.312,1.354c0.281,0.586,0.75,1.265,1.314,2.002c1.127,1.465,2.656,3.146,3.928,4.92
	c1.506,2.072,1.846,4.397,1.354,6.492c-0.939,3.941-4.721,7.139-9.084,7.191c-0.889,0.002-1.738-0.089-2.531-0.276
	c-1.324-0.31-2.479-0.86-3.455-1.565c1.15,1.532,2.961,2.767,5.215,3.297c0.791,0.193,1.646,0.283,2.537,0.281
	c4.363-0.053,8.139-3.242,9.086-7.192C224.003,45.93,223.652,43.604,222.158,41.523z M98.622,53.721
	c-1.821-2.262-2.663-5.057-2.07-8.197c0.017-0.072,0.029-0.148,0.043-0.225c0.155-0.668,0.459-1.346,0.847-1.881
	c-0.388-0.23-0.683-0.576-0.868-0.943c-0.224-0.449-0.324-0.957-0.27-1.445c-0.123,0.094-0.248,0.213-0.357,0.337
	c-0.521,0.558-0.922,1.397-1.113,2.201c-0.013,0.078-0.029,0.139-0.04,0.22c-0.607,3.15,0.251,5.945,2.066,8.202
	c0.526,0.659,1.143,1.266,1.83,1.815C98.666,53.783,98.64,53.75,98.622,53.721z M109.732,24.16c0.04,0.143,0.062,0.283,0.08,0.436
	l0.147-0.371C109.889,24.201,109.808,24.177,109.732,24.16z M106.083,31.032c0.36,0.089,0.732,0.123,1.101,0.134l1.098-2.744
	c-0.301,0.267-0.625,0.473-0.979,0.633c-0.928,0.426-1.972,0.484-2.974,0.247c-0.636-0.144-1.256-0.416-1.83-0.784
	c0,0,0,0.002,0.004,0.008C103.395,29.845,104.708,30.707,106.083,31.032z M99.843,45.403c0.199,0.046,0.408,0.065,0.628,0.068
	c0.366-0.007,0.717-0.065,1.039-0.167l1.722-4.285c-0.066-0.135-0.13-0.268-0.218-0.386c-0.343-0.547-0.873-1.017-1.545-1.341
	c0.332,0.688,0.421,1.451,0.257,2.166c-0.147,0.604-0.483,1.188-1.003,1.597c-0.521,0.419-1.219,0.671-2.022,0.687
	c-0.193-0.002-0.379-0.021-0.562-0.053c0.042,0.172,0.114,0.348,0.2,0.514C98.61,44.756,99.128,45.244,99.843,45.403z
	 M122.347,18.032c0.199,0.035,0.401,0.082,0.59,0.121c0.987,0.232,1.787,0.553,2.449,0.934c-0.094-0.132-0.176-0.277-0.273-0.414
	c-0.709-0.952-1.963-1.787-3.941-2.249c-0.191-0.051-0.387-0.085-0.588-0.128l-4.803,12.349c0.951-0.122,1.828-0.308,2.643-0.544
	L122.347,18.032z"/>
<path class="st3" d="M219.697,40.291L219.697,40.291c-1.236-1.71-2.746-3.38-3.912-4.894c-1.168-1.521-2.014-2.862-1.791-4.045
	c0.012-0.038,0.018-0.085,0.021-0.119c0.26-1.089,1.008-1.792,1.912-2.134c0.924-0.34,2.002-0.356,2.996-0.129
	c0.855,0.202,1.648,0.586,2.219,1.121c0.566,0.53,0.92,1.235,0.836,2.038l-0.039,0.416l-0.283-0.302
	c-0.268-0.279-0.559-0.445-0.842-0.51c-0.666-0.148-1.291,0.211-1.496,1.036c0,0.035-0.01,0.075-0.012,0.118
	c-0.139,0.899,0.232,1.699,1.34,1.958c0.25,0.065,0.537,0.091,0.869,0.079c1.473-0.054,1.998-0.979,2.268-2.002l0.02-0.059
	c0.334-1.471-0.029-2.854-0.908-3.997c-0.877-1.132-2.293-2.006-4.006-2.398c-0.691-0.166-1.445-0.251-2.236-0.243
	c-3.379,0.029-6.186,1.682-6.871,4.631c-0.021,0.034-0.021,0.079-0.037,0.125c-0.633,3.076,1.094,5.676,2.965,8.062
	c1.861,2.378,3.857,4.523,3.477,6.791c-0.021,0.132-0.055,0.264-0.084,0.388c-0.357,1.561-1.172,2.576-2.162,3.119
	c-0.998,0.551-2.168,0.621-3.285,0.361c-1.238-0.298-2.387-0.986-3.178-1.943c-0.781-0.955-1.193-2.199-0.881-3.521
	c0.098-0.379,0.234-0.77,0.443-1.156l0.365,0.109c-0.08,0.842,0.41,1.339,1.102,1.51c0.879,0.195,1.99-0.224,2.273-1.453
	c0.02-0.059,0.027-0.132,0.045-0.201c0.178-1.23-0.512-2.393-1.734-2.691c-0.527-0.115-1.17-0.09-1.904,0.193
	c-1.133,0.431-2.225,1.748-2.67,3.635c-0.1,0.42-0.16,0.869-0.186,1.334c-0.176,2.793,2.125,5.945,5.988,6.856
	c0.73,0.171,1.506,0.259,2.348,0.251c3.93-0.031,7.414-2.988,8.24-6.538C221.335,44.216,221.046,42.181,219.697,40.291z
	 M200.988,46.159c-0.023,0.012-0.062,0.024-0.127,0.039c-0.111,0.015-0.291,0.03-0.613,0.021c-0.404-0.016-0.582-0.132-0.799-0.109
	c-0.1,0-0.244,0.074-0.408,0.333c-1.93,2.981-3.602,3.951-5.012,3.978c-0.115-0.002-0.232-0.014-0.34-0.039
	c-0.584-0.129-0.898-0.657-0.965-1.302c-0.09-0.653,0.002-1.466,0.203-2.35c0.178-0.782,0.451-1.6,0.773-2.405
	c1.486-3.683,5.605-14.445,6.35-16.516c0.033-0.094,0.066-0.179,0.07-0.252c0.053-0.207,0.035-0.321,0.008-0.379
	c-0.033-0.048-0.086-0.098-0.221-0.125c-0.465-0.125-1.666,0.164-2.904,0.112c-0.904-0.051-1.508-0.042-1.881,0.052
	c-0.371,0.098-0.506,0.236-0.633,0.544c-1.256,3.162-3.734,9.619-4.576,11.766c-1.508,3.818-2.529,6.278-3.452,7.822
	c-0.919,1.514-1.805,2.154-2.952,2.177c-0.374,0.008-0.714-0.021-1.02-0.091c-0.848-0.195-1.404-0.767-1.58-1.637
	c-0.201-0.858-0.092-2.014,0.256-3.504c0.307-1.34,0.818-2.949,1.509-4.848c2.459-6.818,3.634-9.796,4.228-11.261
	c0.053-0.114,0.076-0.212,0.092-0.303c0.062-0.25,0.025-0.387-0.018-0.453c-0.055-0.084-0.156-0.139-0.297-0.175
	c-0.223-0.046-0.493-0.032-0.674-0.019c-1.641,0.049-2.057,0.207-3.789,0.029c-0.327-0.035-0.447,0.012-0.514,0.068
	c-0.077,0.062-0.166,0.242-0.295,0.579c-0.254,0.659-2.725,6.983-4.506,11.583c-0.433,1.107-0.771,2.157-1,3.164
	c-0.277,1.211-0.422,2.345-0.427,3.379l0.005,0.05l-0.032,0.052c-2.229,3.424-4.327,4.541-5.478,4.6
	c-0.131,0.009-0.25-0.009-0.367-0.027c-0.586-0.138-0.875-0.671-0.949-1.309c-0.086-0.656,0.012-1.479,0.217-2.366
	c0.185-0.772,0.445-1.592,0.777-2.386c1.478-3.688,5.593-14.45,6.348-16.521c0.025-0.095,0.055-0.177,0.069-0.243
	c0.038-0.213,0.028-0.328,0.005-0.382c-0.032-0.056-0.082-0.096-0.215-0.132c-0.492-0.122-1.681,0.167-2.914,0.108
	c-0.901-0.05-1.514-0.035-1.883,0.059c-0.363,0.1-0.514,0.238-0.629,0.536c-0.265,0.66-0.662,1.678-1.127,2.881l-0.186,0.457
	l-0.166-0.46c-0.685-1.689-2.093-2.917-4.096-3.38c-0.039-0.012-0.068-0.021-0.119-0.033c-4.923-1.085-10.705,4.451-13.717,12.348
	c-0.271,0.706-0.49,1.404-0.642,2.096c-0.167,0.665-0.267,1.333-0.329,1.984v0.04l-0.025,0.043
	c-3.323,5.578-7.728,7.79-10.871,7.064c-2.713-0.635-4.342-3.49-3.404-7.98l0.029-0.16l0.149-0.005
	c2.847,0.005,5.583,0.138,7.925-0.649c2.328-0.778,4.287-2.45,5.614-6.17c0.1-0.276,0.185-0.547,0.244-0.814
	c0.831-3.581-1.28-6.783-4.491-7.542c-0.465-0.103-0.961-0.164-1.471-0.163c-6.387,0.003-11.153,6.216-12.646,12.619
	c-0.703,3.007-0.689,6.043,0.191,8.469c0.884,2.433,2.615,4.248,5.377,4.901c0.679,0.159,1.409,0.247,2.217,0.255
	c3.777,0.031,7.393-1.125,11.084-6.246l0.238-0.331l0.105,0.394c0.69,2.762,2.521,4.783,5.241,5.412
	c0.536,0.127,1.103,0.199,1.716,0.215c2.48,0.042,4.656-0.713,6.541-2.656l0.178-0.186l0.127,0.221
	c0.627,1.117,1.638,1.955,3.139,2.307c0.475,0.117,1.014,0.161,1.584,0.176c2.391-0.01,4.481-0.941,6.692-4.378l0.226-0.328
	l0.119,0.382c0.669,2.029,2.125,3.369,4.316,3.893c0.713,0.167,1.479,0.238,2.324,0.223c2.521-0.049,4.404-0.996,5.889-2.446
	l0.182-0.188l0.122,0.235c0.509,1.088,1.362,1.83,2.663,2.133c0.455,0.118,0.963,0.166,1.516,0.149
	c1.162-0.023,2.334-0.092,3.668-0.926c1.332-0.84,2.844-2.472,4.584-5.671c0.033-0.046,0.039-0.083,0.039-0.103
	c-0.021-0.011-0.086-0.013-0.129-0.006C201.031,46.152,201.017,46.15,200.988,46.159z M136.619,40.193
	c1.333-3.451,2.725-5.655,4.018-6.963c1.288-1.295,2.52-1.714,3.486-1.481c1.471,0.349,2.216,2.073,1.785,3.89
	c-0.045,0.203-0.104,0.398-0.179,0.592c-0.67,1.809-1.88,2.904-3.425,3.497c-1.542,0.604-3.429,0.746-5.506,0.723h-0.277
	L136.619,40.193z M167.242,36.288c-1.111,2.874-2.205,5.726-2.833,7.328l-0.179-0.08l0.176,0.08c-2.247,5.027-4.53,6.099-5.896,6.09
	c-0.409,0-0.784-0.053-1.136-0.129l-0.018-0.008c-1.305-0.308-2.188-1.18-2.578-2.48c-0.393-1.305-0.326-3.046,0.172-5.141
	c0.149-0.664,0.344-1.368,0.582-2.088c0.502-1.517,1.623-3.643,3.07-5.394c1.441-1.75,3.176-3.157,4.965-3.147
	c0.283,0.009,0.553,0.049,0.819,0.107c1.833,0.424,3.335,2.235,2.874,4.822l-0.011,0.015L167.242,36.288z M121.56,32.298
	l-0.352-0.208l0.381-0.135c5.504-1.998,8.567-5.553,9.408-9.123c1.094-4.714-1.65-9.514-8.006-11.018
	c-1.289-0.296-2.732-0.458-4.316-0.461c-3.871,0.003-7.944,0.734-11.253,2.358c-3.304,1.629-5.833,4.145-6.675,7.751
	c-0.035,0.136-0.065,0.278-0.088,0.423c-0.693,3.589,1.539,6.03,3.874,6.58c1.681,0.382,3.372-0.198,4.13-2.093
	c0.088-0.228,0.163-0.457,0.212-0.66c0.292-1.339-0.136-2.214-1.108-2.448c-0.163-0.039-0.347-0.055-0.546-0.057
	c-1.136,0.014-1.739,0.598-1.915,1.299c-0.138,0.575,0.046,1.238,0.566,1.755l0.368,0.352l-0.504-0.023
	c-0.163-0.01-0.312-0.032-0.451-0.061c-0.881-0.215-1.478-0.877-1.794-1.691c-0.318-0.813-0.36-1.773-0.154-2.639
	c0.029-0.127,0.07-0.25,0.104-0.367c1.075-3.271,4.123-5.829,10.702-6.479l0.316-0.033l-14.968,37.3c0,0-0.02,0.076-0.053,0.176
	c-0.017,0.101-0.026,0.225-0.001,0.307c0.031,0.072,0.06,0.129,0.224,0.177c0.042,0,0.087,0.013,0.149,0.017
	c1.009,0.051,3.421-0.09,4.198-0.071c0.818,0.022,1.223-0.305,1.568-0.849c0.339-0.559,0.551-1.325,0.867-2.08l6.419-16.517
	l0.135,0.013c0.977,0.052,1.883,0.179,2.73,0.38c3.349,0.781,5.63,2.637,6.907,4.982c1.275,2.353,1.539,5.179,0.899,7.925
	c-1.298,5.553-6.338,10.768-14.327,10.93c-1.609,0.029-3.167-0.141-4.645-0.475c-6.882-1.619-11.914-7.105-10.61-13.912
	c0.009-0.09,0.027-0.167,0.055-0.258c0.205-0.928,0.659-1.877,1.302-2.584c0.644-0.697,1.504-1.156,2.514-1.021l0.035,0.379
	c-0.358,0.106-0.579,0.4-0.667,0.779c-0.087,0.371-0.032,0.812,0.147,1.17c0.188,0.359,0.495,0.643,0.938,0.758
	c0.13,0.02,0.262,0.034,0.407,0.039c1.265-0.039,1.985-0.742,2.205-1.633c0.281-1.206-0.441-2.753-2.352-3.201
	c-0.264-0.065-0.548-0.102-0.855-0.118c-3.3-0.187-5.555,2.631-6.265,5.655c-0.014,0.028-0.021,0.06-0.026,0.094
	c-1.703,7.661,4.062,15.976,12.572,17.963c1.14,0.267,2.311,0.424,3.522,0.443c11.739,0.248,18.411-6.521,20.138-13.887
	C129.07,42.034,127.029,35.485,121.56,32.298z M114.778,29.594l-0.293,0.029l5.545-14.281l0.154,0.021
	c0.408,0.058,0.807,0.13,1.183,0.227c2.114,0.488,3.575,1.411,4.437,2.563c0.854,1.172,1.086,2.569,0.763,3.964
	C125.746,25.614,121.47,29.127,114.778,29.594z M207.812,20.236L207.812,20.236c-0.395-0.415-0.867-0.678-1.34-0.787
	c-0.955-0.217-1.873,0.159-2.295,1.205c-0.023,0.092-0.053,0.183-0.088,0.274c-0.23,1.044,0.496,1.854,1.408,2.071
	c0.371,0.087,0.77,0.073,1.109-0.095l0.555-0.237l-0.307,0.505c-0.535,0.952-1.623,1.559-2.744,1.437
	c-0.025,0.017-0.049,0.051-0.066,0.073c-0.062,0.085-0.117,0.216-0.146,0.333c-0.023,0.17-0.035,0.26,0.182,0.382
	c0.008,0.005,0.027,0.007,0.043,0.007c1.01,0.242,1.979-0.029,2.74-0.583c0.795-0.542,1.357-1.376,1.551-2.233
	C208.619,21.753,208.464,20.915,207.812,20.236z"/>
<path class="st10" d="M216.943,65.33c-0.156-0.287-0.371-0.537-0.652-0.774c-0.016,0.052-0.016,0.089-0.027,0.132
	c-0.076,0.369-0.316,0.678-0.607,0.893c-0.293,0.214-0.645,0.361-1.061,0.47c-0.828,0.189-1.9,0.208-3.283,0
	c-26.142-4.048-53.043-4.437-74.385-1.327c-0.979,0.145-1.686,0.151-2.217,0.035c-0.037-0.018-0.082-0.025-0.117-0.037
	c-0.01,0.111,0.004,0.238,0.04,0.355c0.085,0.238,0.264,0.398,0.419,0.502c0.166,0.088,0.328,0.148,0.504,0.191
	c0.53,0.113,1.217,0.119,2.199-0.021c21.367-2.935,48.262-2.327,74.371,1.946c1.375,0.218,2.461,0.208,3.297,0.014
	c0.42-0.097,0.766-0.245,1.055-0.451c0.291-0.222,0.533-0.527,0.613-0.896C217.179,66.012,217.109,65.637,216.943,65.33z"/>
<path class="st3" d="M214.892,63.533c-0.449-0.355-1.18-0.699-2.211-0.939c-0.344-0.083-0.727-0.151-1.123-0.203
	c-33.346-4.363-55.799-2.709-74.939,0.559c-0.645,0.109-1.15,0.27-1.494,0.424c-0.35,0.164-0.514,0.35-0.507,0.395
	c0,0.016-0.015,0.003,0.024,0.046c0.023,0.022,0.115,0.073,0.266,0.112c0.339,0.082,0.974,0.09,1.891-0.039
	c21.457-3.139,48.428-2.746,74.635,1.309c1.314,0.199,2.301,0.177,2.959,0.01c0.662-0.164,0.986-0.453,1.043-0.717
	C215.496,64.244,215.355,63.896,214.892,63.533z"/>
<g>
	<g>
		<path class="st0" d="M79.417,39.876l-0.006-0.14c0-0.203-0.145-0.556-0.432-1.026c0-0.188-0.012-2.862-0.012-2.961
			c0.077-0.307,0.283-1.27,0.283-1.681c0-0.051-0.003-0.094-0.007-0.128c-0.04-0.146-0.145-0.364-0.395-0.601
			c-0.027-0.214-0.121-1.091-0.124-1.125c0-0.134-0.023-1.423-0.023-1.423l-0.017-0.411c0-0.454-0.468-0.741-0.648-0.846
			c0,0-0.013-0.017-0.016-0.017c0.016-0.309,0.054-0.875,0.054-1.341c0-0.25-0.018-0.469-0.038-0.615
			c-0.102-0.719-0.621-0.958-0.836-1.031c0,0-0.091-0.038-0.18-0.068c-0.01-0.223-0.022-0.486-0.022-0.486
			c-0.085-0.495-0.743-0.776-0.918-0.81c-1.718-0.349-4.723-0.385-5.136-0.349c-0.073,0-0.168,0.013-0.246,0.032
			c-0.686-1.363-1.794-2.208-2.529-2.361c-3.309-0.688-4.853,0.547-8.227,4.216c-1.73-0.922-3.991-0.853-7.058-0.484
			c0.683-0.299,1.313-0.777,1.395-1.543c0.188-1.6-2.007-3.499-4.781-4.145c-1.151-0.269-2.917-0.406-4.171-0.016
			c-0.325-0.516-0.915-0.984-1.656-0.959c-0.69,0.025-1.233,0.426-1.523,0.932v-6.697c0-0.374-0.341-0.627-0.906-0.741V9.348
			c0.163-0.084,0.312-0.199,0.324-0.39l0.008-3.31L41.47,5.546c-0.463-0.465-2.192-0.432-2.668-0.053l-0.132,0.1v3.484l0.057-0.003
			c0,0,0.146,0.097,0.288,0.191c0,0.276,0,3.312,0,3.786c-0.121,0.023-0.242,0.048-0.242,0.048c-0.545,0.17-0.656,0.471-0.656,0.692
			v9.518c-5.542,0.036-13.866,0.127-16.541,0.397c-4.398,0.442-6.833,3.557-6.833,5.542c0,0,0.018,1.554,0.05,3.632
			c-0.744,0.256-1.726,1.171-1.726,2.499c0,1.41,0.948,2.247,1.798,2.446c0.019,1.167,0.033,2.258,0.046,3.184
			c-1.938-0.098-4.024,0.281-5.747,1.432c-2.525,1.691-4.998,5.422-4.83,9.94c0.169,4.603,3.084,9.503,7.68,9.737
			c4.274,0.215,7.509-2.006,9.35-6.441c0.414-1,0.619-2.252,0.667-3.607l11.245,2.072c-0.312,1.084-0.517,2.219-0.583,3.377
			c-0.033,0.561-0.048,1.123-0.048,1.68c-0.03,5.051,1.475,10.049,7.221,11.078c0.359,0.066,0.715,0.094,1.079,0.094
			c4.583-0.022,9.13-4.975,9.976-12.811c0.097-0.867,0.143-1.676,0.143-2.449c0-2.85-0.629-5.037-1.661-6.638
			c0.281-0.126,0.453-0.196,0.475-0.208c0.908,0.25,2.045,0.467,3.055,0.059l0.347-0.137c1.136-0.458,3.264-1.318,9.122-3.426
			l0.132-0.045l0.246-0.49c0.31,0.367,0.704,0.744,0.831,0.854c0.123,0.09,0.18,0.324,0.197,0.453l0.05,0.17
			c-0.009-0.036-0.05,0.367-0.05,0.367l-0.364,1.14c-0.168,0.509-0.282,1.153-0.282,1.529c0,0.07,0.003,0.134,0.011,0.181
			c0.024,0.121,0.078,0.41,1.538,1.332c0,0,0.034,0.018,0.06,0.037c-0.004,0.035-0.123,0.613-0.123,1.148
			c0,0.285,0.036,0.551,0.13,0.728c0.214,0.38,0.734,0.599,1.442,0.899c0,0,0.091,0.037,0.171,0.076
			c0.103,0.34,0.347,0.72,0.75,0.809c3.312,0.752,5.578,0.916,8.064-0.336c-0.016,0.004,0.657-0.078,0.657-0.078
			c0.548-0.051,0.668-0.441,0.733-0.631c0.023-0.055,0.142-0.821,0.142-0.821s0.045-0.305,0.072-0.466
			c0.036-0.008,0.077-0.022,0.077-0.022c0.277-0.075,0.54-0.149,0.679-0.339c0.137-0.18,0.152-0.444,0.174-1.426
			c0,0,0.01-0.709,0.01-0.771c0.035-0.12,0.345-1.33,0.414-1.597c0.288-0.143,0.43-0.321,0.491-0.625
			c0.021-0.071,0.031-0.156,0.031-0.33c0-0.227-0.031-0.611-0.133-1.294c0.138-1.085,0.249-2.31,0.325-3.646
			c0.108-0.184,0.424-0.728,0.424-0.728c0.106-0.281,0.121-0.551,0.121-0.774C79.421,39.998,79.417,39.936,79.417,39.876z
			 M11.633,55.301c-0.159,0.152-0.342,0.059-0.44-0.035c-0.261-0.264-0.809-1.451-0.903-1.863c-0.094-0.416-0.189-1.042,0.263-1.004
			c0.194,0.017,0.499,0.013,0.663,0.232c0.169,0.219,0.811,1.803,0.861,2.052C12.125,54.87,11.799,55.132,11.633,55.301z
			 M13.361,49.175c-0.224,0.212-0.302,0.304-0.545,0.477c-0.354,0.244-1.405-0.027-1.545-0.152
			c-0.374-0.341,1.151-1.906,1.943-2.015c0.123-0.021,0.216,0,0.282,0.035l0.123,1.096C13.576,48.822,13.503,49.045,13.361,49.175z
			 M15.664,55.132c-0.133,0.321-0.718,1.038-0.984,1.132c-0.263,0.093-0.771-0.09-0.753-0.355c0.022-0.266,0.212-0.926,0.381-0.98
			c0.167-0.058,0.505-0.058,0.622-0.058C15.194,54.87,15.797,54.816,15.664,55.132z M42.147,21.745
			c0.073,0.044,0.17,0.075,0.302,0.075h0.194c0,0.062-0.003,0.775-0.003,1.479c-0.146,0-0.316,0-0.493,0V21.745z M45.636,23.39
			c-0.602-0.634-0.875-1.163-0.703-1.449c0.024-0.042,0.053-0.083,0.101-0.121l0.454-0.176l0.032-0.102
			c0.324-0.119,0.747-0.192,1.234-0.224l1.296,2.646C47.295,23.741,45.636,23.39,45.636,23.39z M49.189,23.922
			c-0.183-0.372-0.86-1.74-1.279-2.588c0.449,0.037,0.917,0.103,1.359,0.208c1.639,0.382,2.858,1.197,3.49,1.94
			C51.724,23.612,49.644,23.867,49.189,23.922z M53.239,24.47c0.003,0.025,0.021,0.059,0.014,0.086
			c-0.061,0.568-1.225,0.924-1.872,1.021c-0.3-0.255-0.678-0.497-1.138-0.741L53.239,24.47z M51.377,47.183l3.511-1.44l1.034,0.405
			C53.907,47.24,52.303,47.758,51.377,47.183z"/>
		<path class="st0" d="M39.719,71.109c-6.258-1.113-7.974-6.679-7.921-11.777l0,0c0-0.047,0-0.098,0-0.133l0,0
			c0-0.57,0.02-1.152,0.054-1.73l0,0c0.051-0.904,0.183-1.797,0.381-2.66l0,0l-9.418-1.736c-0.1,1.059-0.311,2.052-0.668,2.926l0,0
			c-1.822,4.465-5.235,7.008-9.57,6.979l0,0c-0.197,0-0.4-0.003-0.604-0.01l0,0c-5.25-0.338-8.296-5.678-8.481-10.538l0,0
			c-0.014-0.177-0.014-0.339-0.014-0.482l0,0c0.014-4.647,2.537-8.4,5.217-10.207l0,0c1.643-1.104,3.544-1.55,5.357-1.589l0,0
			c-0.007-0.544-0.015-1.124-0.021-1.731l0,0c-0.968-0.484-1.808-1.548-1.808-3.044l0,0c0.023-1.458,0.839-2.486,1.718-3.017l0,0
			c-0.028-1.806-0.042-3.099-0.042-3.111l0,0c0.059-2.603,2.831-5.866,7.595-6.38l0,0c2.636-0.268,10.253-0.358,15.779-0.396l0,0
			V13.79c-0.046-0.431,0.286-1.034,0.898-1.358l0,0c0-0.694,0-1.768,0-2.476l0,0l-0.346,0.027V5.177l0.329-0.255l0.113-0.084
			c0.604-0.437,1.185-0.457,1.851-0.487l0,0c0.672,0.037,1.321,0.046,1.951,0.591l0,0l0.352,0.351l-0.011,3.727
			c-0.031,0.323-0.165,0.562-0.318,0.735l0,0v2.69c0.47,0.239,0.88,0.666,0.905,1.346l0,0v5.024
			c0.183-0.052,0.373-0.086,0.573-0.097l0,0c0.082-0.013,0.125-0.013,0.145-0.01l0,0c0.007,0,0.012,0,0.015,0l0,0
			c0.82,0.006,1.469,0.384,1.921,0.855l0,0c0.505-0.102,1.032-0.136,1.554-0.136l0,0c0.899,0,1.778,0.115,2.485,0.281l0,0
			c2.861,0.729,5.316,2.453,5.447,4.775l0,0c0,0.098-0.009,0.189-0.016,0.287l0,0c-0.017,0.137-0.042,0.269-0.079,0.391l0,0
			c0.436-0.028,0.856-0.042,1.265-0.042l0,0c1.253,0,2.397,0.146,3.431,0.562l0,0c2.527-2.725,4.242-4.211,6.841-4.22l0,0
			c0.561,0,1.145,0.067,1.766,0.199l0,0c1.002,0.236,2.032,1.036,2.82,2.3l0,0c0.073,0,0.153,0,0.25-0.001l0,0
			c1.054,0.003,3.31,0.074,4.844,0.38l0,0c0.396,0.146,1.22,0.316,1.57,1.549l0,0c0.405,0.233,0.934,0.722,1.048,1.575l0,0
			c0.027,0.175,0.047,0.42,0.047,0.712l0,0c0,0.309-0.012,0.64-0.03,0.925l0,0c0.282,0.229,0.596,0.605,0.638,1.243l0,0l0.018,0.436
			c0,0.003,0.022,1.281,0.018,1.392l0,0c0.001,0,0.054,0.472,0.09,0.8l0,0c0.215,0.263,0.345,0.548,0.424,0.873l0,0
			c0.005,0.054,0.014,0.132,0.014,0.228l0,0c-0.011,0.559-0.183,1.34-0.281,1.758l0,0c0.001,0.394,0.007,2.043,0.007,2.659l0,0
			c0.246,0.427,0.41,0.751,0.434,1.217l0,0l0.005,0.141l-0.842,0.031h0.845c-0.003,0.021,0,0.093,0.004,0.192l0,0
			c-0.004,0.255-0.015,0.64-0.176,1.069l0,0l-0.025,0.068l-0.033,0.064c0,0-0.189,0.32-0.328,0.557l0,0
			c-0.073,1.221-0.173,2.352-0.302,3.373l0,0c0.092,0.643,0.127,1.027,0.127,1.311l0,0c0,0.197-0.011,0.381-0.047,0.49l0,0
			c-0.044,0.367-0.289,0.748-0.585,0.999l0,0c-0.097,0.371-0.238,0.922-0.305,1.178l0,0c-0.003,0.223-0.013,0.668-0.013,0.677l0,0
			c-0.043,0.955,0.044,1.319-0.337,1.915l0,0c-0.232,0.28-0.474,0.421-0.681,0.501l0,0c-0.011,0.074-0.031,0.207-0.052,0.344l0,0
			c-0.061,0.27-0.018,0.264-0.115,0.564l0,0c-0.01,0.155-0.435,1.146-1.434,1.199l0,0l-0.518,0.059
			c-1.363,0.664-2.721,0.948-4.132,0.945l0,0c-1.352,0-2.751-0.238-4.356-0.602l0,0c-0.647-0.164-1.013-0.592-1.22-1.004l0,0
			c-0.634-0.281-1.248-0.482-1.7-1.207l0,0c-0.213-0.416-0.224-0.772-0.232-1.134l0,0c0-0.255,0.022-0.511,0.047-0.726l0,0
			c-1.124-0.743-1.421-1.213-1.518-1.684l0,0c-0.012-0.092-0.015-0.182-0.015-0.287l0,0c0.003-0.524,0.126-1.184,0.32-1.785l0,0
			l0.336-1.049c0-0.039,0.003-0.088,0.014-0.158l0,0l-0.013-0.033l-0.007-0.064c0,0,0-0.008-0.003-0.011l0,0
			c-0.041-0.038-0.087-0.079-0.137-0.128l0,0l-0.021,0.008l-0.119,0.041c-5.853,2.104-7.96,2.957-9.092,3.416l0,0l-0.354,0.139
			c-0.528,0.209-1.067,0.286-1.575,0.286l0,0c-0.294,0-0.575-0.026-0.844-0.065l0,0c0.695,1.572,1.089,3.496,1.089,5.779l0,0
			c0,0.805-0.05,1.646-0.149,2.537l0,0c-0.876,8.086-5.58,13.491-10.816,13.568l0,0C40.537,71.217,40.128,71.186,39.719,71.109
			L39.719,71.109z M34.35,53.478l-0.26,0.897c-0.297,1.027-0.488,2.104-0.552,3.191l0,0c-0.03,0.545-0.046,1.09-0.046,1.648l0,0
			c0,0.033,0,0.07,0,0.117l0,0c0.053,4.904,1.385,9.18,6.523,10.113l0,0c0.307,0.053,0.611,0.077,0.925,0.077l0,0
			c3.937,0.034,8.327-4.468,9.142-12.057l0,0c0.09-0.837,0.136-1.616,0.136-2.354l0,0c0-2.727-0.601-4.742-1.523-6.184l0,0
			l-0.54-0.825l0.905-0.401c0.215-0.102,0.375-0.168,0.438-0.195l0,0v0.004l0.272-0.15l0.333,0.09
			c0.067,0.018,0.135,0.035,0.203,0.055l0,0l-0.761-0.484l5.328-2.19l2.355,0.919c1.214-0.453,2.747-1.018,4.701-1.721l0,0
			l0.66-1.324l0.83,0.975c0.265,0.319,0.662,0.695,0.695,0.722l0,0c0.428,0.39,0.464,0.679,0.502,0.897l0,0l0.05,0.159l-0.533,0.319
			l0.319,0.069l0.224,0.03c-0.005,0.016-0.01,0.06-0.01,0.099l0,0c-0.011,0.083-0.02,0.173-0.02,0.173l0,0L64.64,46.23l-0.029,0.098
			l-0.365,1.146c-0.13,0.386-0.233,0.97-0.238,1.224l0,0c0.124,0.125,0.458,0.402,1.161,0.84l0,0l0.521,0.338l-0.085,0.545
			c-0.014,0.086-0.111,0.576-0.111,1.013l0,0c-0.011,0.216,0.013,0.329,0.019,0.312l0,0c-0.006,0.018,0.309,0.262,1.027,0.536l0,0
			c0.005,0.007,0.099,0.041,0.199,0.089l0,0l0.351,0.156l0.111,0.372c0.049,0.18,0.111,0.231,0.127,0.231l0,0
			c1.553,0.349,2.839,0.558,3.983,0.555l0,0c1.243,0,2.319-0.233,3.514-0.83l0,0l0.133-0.066l0.144-0.016l0.67-0.08
			c0.002-0.006,0.006-0.013,0.008-0.02l0,0c0-0.004,0-0.014,0.01-0.039l0,0c0.001-0.01,0.005-0.02,0.006-0.029l0,0
			c0.011-0.074,0.029-0.17,0.044-0.27l0,0c0.028-0.193,0.059-0.385,0.059-0.373l0,0c0-0.004,0.047-0.305,0.075-0.486l0,0l0.095-0.57
			l0.565-0.117l0.025,0.121v-0.131c0.08-0.022,0.152-0.041,0.202-0.061l0,0c0.012-0.152,0.022-0.45,0.033-0.896l0,0
			c0,0,0.01-0.725,0.01-0.761l0,0v-0.122l0.033-0.113c0.024-0.074,0.339-1.312,0.407-1.569l0,0l0.092-0.372l0.342-0.176
			c0.059-0.01,0.05-0.022,0.05-0.022l0,0c0,0-0.003-0.007,0.009-0.058l0,0c0-0.012,0-0.055,0-0.119l0,0
			c0.006-0.147-0.021-0.509-0.12-1.17l0,0l-0.021-0.115l0.016-0.115c0.137-1.061,0.245-2.271,0.319-3.586l0,0l0.013-0.205
			l0.103-0.174c0.081-0.137,0.285-0.488,0.378-0.646l0,0c0.038-0.13,0.05-0.267,0.05-0.432l0,0c0-0.033-0.002-0.077-0.003-0.153l0,0
			l0,0l-0.007-0.147c-0.01-0.025-0.02-0.062-0.042-0.113l0,0c-0.051-0.121-0.136-0.296-0.264-0.5l0,0l-0.125-0.205V38.71
			c0-0.184-0.013-2.854-0.013-2.967l0,0v-0.102l0.026-0.104c0.06-0.219,0.244-1.14,0.256-1.421l0,0
			c-0.021-0.035-0.057-0.091-0.132-0.161l0,0l-0.227-0.214l-0.04-0.3c-0.026-0.251-0.114-1.056-0.127-1.227l0,0
			c0-0.11-0.021-1.411-0.021-1.39l0,0l-0.018-0.389c-0.004-0.005-0.009-0.01-0.016-0.015l0,0c-0.045-0.052-0.141-0.115-0.312-0.226
			l0,0L77.145,29.9l0.029-0.439c0.02-0.301,0.051-0.857,0.051-1.288l0,0c0-0.209-0.013-0.398-0.024-0.488l0,0
			c-0.052-0.304-0.18-0.295-0.338-0.377l0,0c0,0-0.075-0.035-0.128-0.05l0,0l-0.535-0.19l-0.024-0.569
			c-0.005-0.129-0.014-0.275-0.017-0.349l0,0c-0.017-0.016-0.039-0.036-0.069-0.057l0,0c-0.079-0.061-0.184-0.108-0.177-0.099l0,0
			c-1.275-0.261-3.533-0.347-4.5-0.344l0,0c-0.215-0.003-0.35,0-0.468,0.016l0,0c-0.002,0.002-0.036,0.002-0.062,0.012l0,0
			l-0.646,0.141l-0.296-0.587c-0.557-1.164-1.606-1.877-1.944-1.914l0,0c-0.536-0.109-1.004-0.165-1.42-0.165l0,0
			c-1.896-0.013-3.205,1.074-6.014,4.127l0,0l-0.446,0.483l-0.573-0.31C58.705,27,57.661,26.81,56.305,26.81l0,0
			c-0.961,0-2.065,0.096-3.32,0.247l0,0l-0.264-0.974c-0.431,0.171-0.865,0.274-1.215,0.328l0,0l-0.379,0.057l-0.294-0.248
			c-0.236-0.197-0.567-0.414-0.984-0.63l0,0l-0.887-0.473l-1.153-0.342c-0.685-0.204-2.348-0.561-2.35-0.561l0,0l0.176-0.828
			l0.61-0.584l-0.61,0.584l-0.176,0.828l-0.26-0.055l-0.179-0.191c-0.523-0.591-0.94-1.041-0.991-1.832l0,0
			c0-0.171,0.036-0.451,0.162-0.601l0,0c0.046-0.098,0.163-0.261,0.296-0.366l0,0l0.11-0.093l0.065-0.027l-0.053-0.084
			c-0.209-0.333-0.55-0.577-0.881-0.566l0,0v-0.002l-0.029,0.002c-0.366,0.013-0.651,0.225-0.822,0.506l0,0l-0.036,0.066h0.648
			v0.848c0,0.072-0.003,0.773-0.003,1.475l0,0v0.847h-0.848c-0.144,0-0.313,0-0.491,0l0,0H41.3v-0.847v-1.552v-1.497v-6.302
			c-0.052-0.021-0.128-0.048-0.226-0.065l0,0l-0.679-0.136V8.842l0.323-0.175l0.006-2.559c0,0-0.003-0.002-0.006-0.002l0,0
			c-0.158-0.037-0.38-0.061-0.603-0.061l0,0c-0.22-0.003-0.446,0.024-0.604,0.057l0,0v2.479l0.348,0.233v0.451
			c0,0.276,0,3.312,0,3.784l0,0v0.697l-0.686,0.133c-0.083,0.017-0.165,0.032-0.177,0.032l0,0c-0.013,0.005-0.025,0.01-0.034,0.012
			l0,0V24.15l-0.844,0.004c-5.524,0.034-13.885,0.133-16.458,0.395l0,0c-4.033,0.363-6.133,3.333-6.075,4.69l0,0
			c0,0,0.021,1.552,0.055,3.627l0,0l0.008,0.614l-0.579,0.198c-0.434,0.136-1.185,0.822-1.155,1.696l0,0
			c-0.003,1.001,0.646,1.501,1.145,1.629l0,0l0.643,0.149l0.009,0.66c0.017,1.167,0.033,2.259,0.045,3.183l0,0l0.012,0.902
			l-0.899-0.045c-0.182-0.01-0.364-0.014-0.542-0.014l0,0c-1.643,0-3.319,0.381-4.691,1.305l0,0
			c-2.209,1.465-4.481,4.806-4.465,8.802l0,0c0,0.137,0,0.266,0.007,0.399l0,0c0.153,4.329,2.938,8.792,6.877,8.931l0,0
			c0.177,0.007,0.352,0.013,0.521,0.013l0,0c3.655-0.03,6.298-1.926,8.009-5.938l0,0c0.353-0.856,0.558-2.024,0.602-3.31l0,0
			l0.031-0.98L34.35,53.478L34.35,53.478z M63.996,48.746h-0.002C63.993,48.746,63.993,48.746,63.996,48.746L63.996,48.746z
			 M51.592,47.703l-0.214-0.519l-0.304,0.476l0.304-0.476L51.592,47.703L51.592,47.703L51.592,47.703z M78.506,28.831l-0.036-0.024
			C78.484,28.814,78.494,28.823,78.506,28.831L78.506,28.831z M49.189,23.923l0.76-0.373L49.189,23.923L49.189,23.923z
			 M49.681,23.008c0.256-0.032,0.562-0.069,0.889-0.11l0,0c-0.346-0.17-0.737-0.326-1.165-0.448l0,0
			C49.505,22.649,49.597,22.839,49.681,23.008L49.681,23.008z M46.491,22.713l-0.235-0.487c-0.024,0.003-0.05,0.008-0.07,0.013l0,0
			l-0.015,0.04l-0.276,0.111c0.051,0.068,0.112,0.146,0.184,0.228l0,0C46.191,22.643,46.333,22.676,46.491,22.713L46.491,22.713z
			 M13.076,55.916c0.006-0.027,0.009-0.053,0.01-0.079l0,0h-0.001c0-0.013,0.001-0.026,0.004-0.041l0,0
			c0.003-0.036,0.005-0.071,0.014-0.116l0,0c0.033-0.203,0.085-0.4,0.159-0.617l0,0c0.179-0.275,0.014-0.525,0.772-0.936l0,0
			c0.335-0.104,0.596-0.104,0.764-0.104l0,0c0.049,0,0.095,0,0.133,0l0,0c0.027,0,0.131-0.003,0.254-0.003l0,0
			c0.144,0.003,0.314,0,0.553,0.058l0,0c0.187,0.018,0.782,0.322,0.787,0.972l0,0c0,0.15-0.035,0.271-0.063,0.348l0,0l-0.801-0.261
			l0.785,0.316c-0.355,0.627-0.661,1.181-1.492,1.608l0,0c-0.172,0.058-0.314,0.071-0.438,0.071l0,0
			C14.001,57.055,13.29,57.055,13.076,55.916L13.076,55.916z M11.444,56.224c-0.447-0.015-0.67-0.202-0.854-0.362l0,0
			c-0.522-0.615-0.927-1.595-1.129-2.275l0,0c-0.04-0.2-0.096-0.445-0.1-0.752l0,0c0.01-0.2,0.014-0.436,0.178-0.736l0,0
			c0.149-0.309,0.613-0.574,0.971-0.547l0,0c0.042,0,0.122,0.002,0.202,0.019l0,0c0.219,0.008,0.728,0.019,1.173,0.546l0,0
			c0.376,0.586,0.86,1.834,1.017,2.374l0,0c0.022,0.095,0.025,0.175,0.025,0.231l0,0c-0.167,0.979-0.628,0.986-0.692,1.17l0,0
			l-0.606-0.59l0.583,0.615c-0.188,0.183-0.48,0.308-0.745,0.308l0,0C11.461,56.224,11.453,56.224,11.444,56.224L11.444,56.224z
			 M11.78,54.656h-0.002C11.78,54.658,11.78,54.658,11.78,54.656L11.78,54.656z M10.7,50.125c-0.239-0.211-0.342-0.538-0.338-0.777
			l0,0c0.095-0.863,0.537-1.186,1-1.699l0,0c0.505-0.451,0.998-0.874,1.701-1.002l0,0c0.062-0.01,0.137-0.02,0.245-0.02l0,0
			c0.195-0.004,0.416,0.048,0.607,0.15l0,0l0.376,0.217l0.045,0.43l0.136,1.227l-0.026,0.133c-0.069,0.263-0.128,0.639-0.519,1.02
			l0,0l0,0c-0.182,0.176-0.328,0.33-0.637,0.547l0,0c-0.372,0.233-0.661,0.233-0.925,0.241l0,0
			C11.66,50.525,11.304,50.529,10.7,50.125L10.7,50.125z M13.358,49.175l-0.437-0.487h-0.013L13.358,49.175L13.358,49.175z"/>
	</g>
	<path class="st4" d="M79.417,39.876l-0.006-0.14c0-0.203-0.145-0.556-0.432-1.026c0-0.188-0.012-2.862-0.012-2.961
		c0.077-0.307,0.283-1.27,0.283-1.681c0-0.051-0.003-0.094-0.007-0.128c-0.04-0.146-0.145-0.364-0.395-0.601
		c-0.027-0.214-0.121-1.091-0.124-1.125c0-0.134-0.023-1.423-0.023-1.423l-0.017-0.411c0-0.454-0.468-0.741-0.648-0.846
		c0,0-0.013-0.017-0.016-0.017c0.016-0.309,0.054-0.875,0.054-1.341c0-0.25-0.018-0.469-0.038-0.615
		c-0.102-0.719-0.621-0.958-0.836-1.031c0,0-0.091-0.038-0.18-0.068c-0.01-0.223-0.022-0.486-0.022-0.486
		c-0.085-0.495-0.743-0.776-0.918-0.81c-1.718-0.349-4.723-0.385-5.136-0.349c-0.073,0-0.168,0.013-0.246,0.032
		c-0.686-1.363-1.794-2.208-2.529-2.361c-3.309-0.688-4.853,0.547-8.227,4.216c-1.73-0.922-3.991-0.853-7.058-0.484
		c0.683-0.299,1.313-0.777,1.395-1.543c0.188-1.6-2.007-3.499-4.781-4.145c-1.151-0.269-2.917-0.406-4.171-0.016
		c-0.325-0.516-0.915-0.984-1.656-0.959c-0.69,0.025-1.233,0.426-1.523,0.932v-6.697c0-0.374-0.341-0.627-0.906-0.741V9.348
		c0.163-0.084,0.312-0.199,0.324-0.39l0.008-3.31L41.47,5.546c-0.463-0.465-2.192-0.432-2.668-0.053l-0.132,0.1v3.484l0.057-0.003
		c0,0,0.146,0.097,0.288,0.191c0,0.276,0,3.312,0,3.786c-0.121,0.023-0.242,0.048-0.242,0.048c-0.545,0.17-0.656,0.471-0.656,0.692
		v9.518c-5.542,0.036-13.866,0.127-16.541,0.397c-4.398,0.442-6.833,3.557-6.833,5.542c0,0,0.018,1.554,0.05,3.632
		c-0.744,0.256-1.726,1.171-1.726,2.499c0,1.41,0.948,2.247,1.798,2.446c0.019,1.167,0.033,2.258,0.046,3.184
		c-1.938-0.098-4.024,0.281-5.747,1.432c-2.525,1.691-4.998,5.422-4.83,9.94c0.169,4.603,3.084,9.503,7.68,9.737
		c4.274,0.215,7.509-2.006,9.35-6.441c0.414-1,0.619-2.252,0.667-3.607l11.245,2.072c-0.312,1.084-0.517,2.219-0.583,3.377
		c-0.033,0.561-0.048,1.123-0.048,1.68c-0.03,5.051,1.475,10.049,7.221,11.078c0.359,0.066,0.715,0.094,1.079,0.094
		c4.583-0.022,9.13-4.975,9.976-12.811c0.097-0.867,0.143-1.676,0.143-2.449c0-2.85-0.629-5.037-1.661-6.638
		c0.281-0.126,0.453-0.196,0.475-0.208c0.908,0.25,2.045,0.467,3.055,0.059l0.347-0.137c1.136-0.458,3.264-1.318,9.122-3.426
		l0.132-0.045l0.246-0.49c0.31,0.367,0.704,0.744,0.831,0.854c0.123,0.09,0.18,0.324,0.197,0.453l0.05,0.17
		c-0.009-0.036-0.05,0.367-0.05,0.367l-0.364,1.14c-0.168,0.509-0.282,1.153-0.282,1.529c0,0.07,0.003,0.134,0.011,0.181
		c0.024,0.121,0.078,0.41,1.538,1.332c0,0,0.034,0.018,0.06,0.037c-0.004,0.035-0.123,0.613-0.123,1.148
		c0,0.285,0.036,0.551,0.13,0.728c0.214,0.38,0.734,0.599,1.442,0.899c0,0,0.091,0.037,0.171,0.076
		c0.103,0.34,0.347,0.72,0.75,0.809c3.312,0.752,5.578,0.916,8.064-0.336c-0.016,0.004,0.657-0.078,0.657-0.078
		c0.548-0.051,0.668-0.441,0.733-0.631c0.023-0.055,0.142-0.821,0.142-0.821s0.045-0.305,0.072-0.466
		c0.036-0.008,0.077-0.022,0.077-0.022c0.277-0.075,0.54-0.149,0.679-0.339c0.137-0.18,0.152-0.444,0.174-1.426
		c0,0,0.01-0.709,0.01-0.771c0.035-0.12,0.345-1.33,0.414-1.597c0.288-0.143,0.43-0.321,0.491-0.625
		c0.021-0.071,0.031-0.156,0.031-0.33c0-0.227-0.031-0.611-0.133-1.294c0.138-1.085,0.249-2.31,0.325-3.646
		c0.108-0.184,0.424-0.728,0.424-0.728c0.106-0.281,0.121-0.551,0.121-0.774C79.421,39.998,79.417,39.936,79.417,39.876z
		 M11.633,55.301c-0.159,0.152-0.342,0.059-0.44-0.035c-0.261-0.264-0.809-1.451-0.903-1.863c-0.094-0.416-0.189-1.042,0.263-1.004
		c0.194,0.017,0.499,0.013,0.663,0.232c0.169,0.219,0.811,1.803,0.861,2.052C12.125,54.87,11.799,55.132,11.633,55.301z
		 M13.361,49.175c-0.224,0.212-0.302,0.304-0.545,0.477c-0.354,0.244-1.405-0.027-1.545-0.152c-0.374-0.341,1.151-1.906,1.943-2.015
		c0.123-0.021,0.216,0,0.282,0.035l0.123,1.096C13.576,48.822,13.503,49.045,13.361,49.175z M15.664,55.132
		c-0.133,0.321-0.718,1.038-0.984,1.132c-0.263,0.093-0.771-0.09-0.753-0.355c0.022-0.266,0.212-0.926,0.381-0.98
		c0.167-0.058,0.505-0.058,0.622-0.058C15.194,54.87,15.797,54.816,15.664,55.132z M42.147,21.745
		c0.073,0.044,0.17,0.075,0.302,0.075h0.194c0,0.062-0.003,0.775-0.003,1.479c-0.146,0-0.316,0-0.493,0V21.745z M45.636,23.39
		c-0.602-0.634-0.875-1.163-0.703-1.449c0.024-0.042,0.053-0.083,0.101-0.121l0.454-0.176l0.032-0.102
		c0.324-0.119,0.747-0.192,1.234-0.224l1.296,2.646C47.295,23.741,45.636,23.39,45.636,23.39z M49.189,23.922
		c-0.183-0.372-0.86-1.74-1.279-2.588c0.449,0.037,0.917,0.103,1.359,0.208c1.639,0.382,2.858,1.197,3.49,1.94
		C51.724,23.612,49.644,23.867,49.189,23.922z M53.239,24.47c0.003,0.025,0.021,0.059,0.014,0.086
		c-0.061,0.568-1.225,0.924-1.872,1.021c-0.3-0.255-0.678-0.497-1.138-0.741L53.239,24.47z M51.377,47.183l3.511-1.44l1.034,0.405
		C53.907,47.24,52.303,47.758,51.377,47.183z"/>
	<path class="st2" d="M27.066,34.268c0.175,0,0.295-0.059,0.295-0.145c0-0.091,0.005-0.156,0.005-0.387
		c0-0.234-0.147-0.302-0.359-0.349c-1.063-0.212-2.973-0.372-4.818-0.474c0-0.375,0.002-0.719,0.002-1.03
		c2.35,0.215,4.783,0.442,4.875,0.442c0.175,0,0.295-0.062,0.295-0.145c0-0.09,0.005-0.156,0.005-0.391s-0.147-0.302-0.359-0.344
		c-1.063-0.218-2.973-0.373-4.813-0.479c0-0.401,0-0.649,0.007-0.689c0.031-0.297-0.057-0.297-0.204-0.297
		c-0.142,0-2.077-0.087-2.227-0.087c-0.235,0-0.296,0.013-0.202,0.204c0.116,0.246,0.224,0.501,0.333,0.765
		c-1.397-0.057-2.436-0.072-2.498-0.057c-0.089,0.032-0.184,0.052-0.184,0.197c0,0,0.002,0.211,0.002,0.323
		c0,0.12,0.201,0.12,0.585,0.15c0.125,0.009,1.107,0.101,2.385,0.219c0.119,0.37,0.222,0.745,0.31,1.132
		c-1.689-0.071-3.029-0.093-3.098-0.071c-0.089,0.021-0.184,0.044-0.184,0.192c0,0,0.002,0.208,0.002,0.325
		c0,0.113,0.201,0.113,0.585,0.144c0.14,0.016,1.36,0.126,2.881,0.266c0.066,0.353,0.125,0.718,0.18,1.07
		c-1.86-0.081-3.384-0.11-3.465-0.091c-0.089,0.025-0.184,0.047-0.184,0.196c0,0,0.002,0.208,0.002,0.324
		c0,0.119,0.201,0.119,0.585,0.15c0.146,0.007,1.522,0.137,3.171,0.288c0.048,0.417,0.087,0.835,0.12,1.251
		c-1.967-0.09-3.614-0.122-3.694-0.102c-0.089,0.023-0.184,0.046-0.184,0.192c0,0,0.002,0.209,0.002,0.328
		c0,0.118,0.201,0.118,0.585,0.145c0.152,0.016,1.622,0.152,3.343,0.31c0.024,0.292,0.037,0.583,0.044,0.868
		c-2.008-0.096-3.706-0.129-3.791-0.109c-0.089,0.033-0.184,0.05-0.184,0.197c0,0,0.002,0.21,0.002,0.329
		c0,0.116,0.201,0.116,0.585,0.145c0.158,0.015,1.657,0.15,3.414,0.311c0.007,0.299,0.009,0.587,0.014,0.868
		c-2.022-0.096-3.746-0.131-3.831-0.108c-0.089,0.024-0.184,0.048-0.184,0.195c0,0,0.002,0.204,0.002,0.325
		c0,0.117,0.201,0.117,0.585,0.146c0.158,0.012,1.669,0.155,3.433,0.32c0,0.297,0,0.592-0.002,0.869
		c-2.021-0.098-3.749-0.131-3.833-0.107c-0.089,0.025-0.184,0.043-0.184,0.196c0,0,0.002,0.208,0.002,0.321
		c0,0.117,0.201,0.117,0.585,0.15c0.158,0.009,1.669,0.15,3.43,0.316c0,0.041,0,0.088,0,0.129c-0.002,0.158,0.01,0.324,0.127,0.355
		c0.115,0.027,0.563,0.104,0.681,0.104c0.116,0,0.156-0.253,0.156-0.376c0-0.002,0-0.055,0-0.125
		c2.35,0.221,4.773,0.446,4.865,0.446c0.175,0,0.295-0.062,0.295-0.147c0-0.09,0.005-0.16,0.005-0.396
		c0-0.231-0.147-0.299-0.359-0.341c-1.063-0.21-2.971-0.371-4.806-0.479c0-0.242,0-0.524,0-0.833
		c2.345,0.221,4.773,0.443,4.865,0.443c0.175,0,0.295-0.059,0.295-0.146c0-0.086,0.005-0.156,0.005-0.395
		c0-0.232-0.147-0.295-0.359-0.338c-1.063-0.214-2.973-0.371-4.813-0.48c0-0.258,0-0.535,0-0.822
		c2.353,0.219,4.781,0.443,4.872,0.443c0.175,0,0.295-0.061,0.295-0.147c0-0.084,0.005-0.155,0.005-0.391
		c0-0.231-0.147-0.296-0.359-0.339c-1.063-0.216-2.973-0.372-4.813-0.479c-0.002-0.273-0.002-0.545-0.002-0.825
		c2.355,0.215,4.783,0.445,4.875,0.445c0.175,0,0.295-0.063,0.295-0.149c0-0.09,0.005-0.156,0.005-0.389
		c0-0.235-0.147-0.299-0.359-0.342c-1.063-0.215-2.973-0.376-4.815-0.479c0-0.398,0-0.795,0-1.193
		c2.35,0.215,4.783,0.446,4.875,0.446c0.175,0,0.295-0.062,0.295-0.149c0-0.085,0.005-0.157,0.005-0.386
		c0-0.239-0.147-0.307-0.359-0.345c-1.063-0.218-2.973-0.372-4.818-0.478c0-0.345,0-0.674,0-0.999
		C24.542,34.04,26.975,34.268,27.066,34.268z"/>
	<path class="st1" d="M38.115,24.297c0-0.012,0-0.02,0-0.026c-5.999,0.083-14.621,0.334-16.504,0.499
		c-1.504,0.134-5.542,1.809-5.62,4.404c0,0,0.183,13.812,0.183,14.097c0,0.289-0.105,0.57,0.806,0.726
		c0.651,0.116,9.69,1.552,10.695,1.481c1.006-0.074,3.219-0.705,3.64-0.916c0.39-0.193,0.577-0.285,0.577-1.002
		c0-0.285,0.01-2.012,0.023-3.996c-0.18-0.098-0.35-0.211-0.506-0.363c-0.508-0.498-0.808-1.273-0.803-2.341
		c0-0.118,0-0.235,0.012-0.363h-0.007c0.069-1.123,0.663-1.793,1.34-2.146c0.008-0.945,0.011-1.561,0.011-1.561
		c-0.071-0.43,0.215-0.645,0.438-0.645l6.683-0.661c0-0.172,0-0.361,0-0.557c-0.743-0.113-0.647-0.562-0.647-0.967
		c0-0.293,0.184-0.555,0.655-0.67c0.003-0.236,0.003-0.48,0.003-0.724c-3.578,0.224-7.191,0.459-7.543,0.503
		c-0.786,0.07-1.409,0.73-1.396,1.793c0,0.985,0.135,9.652,0.156,12.084l0,0c0.002,0.004,0.002,0.011,0,0.011
		c0,0.161-0.045,0.368-0.106,0.513c-0.07,0.16-0.151,0.197-0.151,0.197c-0.101,0.004-0.354-0.283-0.354-0.424
		c-0.022-0.199-0.266-10.073-0.315-12.378c0-0.028,0-0.051,0-0.075c-0.001-2.11,1.676-2.469,1.958-2.523
		c0.142-0.024,3.993-0.204,7.751-0.376c0.01-1.48,0.016-2.756,0.016-2.951C38.235,24.732,38.115,24.443,38.115,24.297z
		 M35.32,30.225c0-0.399,0.334-0.725,1.259-0.725c0.926,0,1.258,0.262,1.258,0.725c0,0.469-0.264,0.998-1.457,0.998
		C35.182,31.222,35.32,30.694,35.32,30.225z M32.2,30.495c0-0.398,0.33-0.729,1.257-0.729c0.927,0,1.265,0.258,1.265,0.729
		c0,0.461-0.269,0.99-1.463,0.99C32.066,31.485,32.2,30.956,32.2,30.495z M28.088,44.023c-0.205,0.363-0.67,0.738-1.417,0.758
		h-0.064c-1.355-0.008-7.323-1.028-9.009-1.334h-0.003c-0.239-0.062-0.578-0.018-0.871-0.363c-0.172-0.274-0.149-0.518-0.157-0.654
		c0-0.027,0-0.055,0-0.07V29.981c0.022-0.028-0.032-0.36,0.33-0.646c0.292-0.164,0.585-0.164,0.757-0.181c0.116,0,0.233,0,0.361,0
		c3.422,0,7.537,0.322,8.438,0.513c1.458,0.302,1.636,1.668,1.617,2.333c0,0.18-0.01,0.324-0.01,0.402
		c0,0.439,0.235,10.868,0.235,10.891C28.294,43.33,28.294,43.656,28.088,44.023z M50.236,26.08
		c-1.274-0.894-3.828-1.434-5.646-1.691c0,0.203,0.001,0.339,0.001,0.339c0,0.353-0.53,0.689-0.926,0.689
		c-0.358,0-1.033-0.204-1.033-0.689c0,0,0-0.193,0-0.481c-0.146,0-0.314-0.003-0.484-0.003v0.042c0,0.114-0.054,0.431-0.841,0.671
		v2.833c2.614-0.122,4.788-0.21,5.047-0.21l0,0c0.624,0.011,0.692,0.155,1.068,0.403c0.387,0.252,1.542,0.83,2.127,0.916
		c0.628,0.102,0.546,0.215,0.557,0.255c0,0.026-0.005,0.042-0.005,0.082c-0.011,0.042-0.139,0.199-0.397,0.192
		c-0.01,0-0.023,0-0.038,0c-1.813-0.082-2.389-1.218-3.229-1.285c-0.244,0-2.48,0.134-5.13,0.293v2.83l1.988-0.195
		c0,0,1.511-0.216,2.018,0.146c0.498,0.356,0.356,0.787,2.229,0.787c1.864,0,2.667-0.149,3.166-0.575
		c0.506-0.435,0.835-1.25,0.775-2.2C51.453,28.726,51.665,27.081,50.236,26.08z"/>
	<path class="st1" d="M34.483,48.964c-0.074-0.088-0.135-0.169-0.181-0.252c-0.076,0.017-0.152,0.027-0.249,0.031
		c-0.388,0.004-0.761-0.116-1.012-0.364c-0.242-0.25-0.308-0.539-0.308-0.742c0.005-0.133,0.011-0.332,0.105-0.604
		c0.075-0.227,0.308-0.637,0.799-0.74c0.543-0.158,7.786-2.305,13.257-3.908c-0.142-0.348-0.448-0.613-1.051-0.477
		c-0.832,0.186-13.697,3.548-15.08,3.892c-0.772,0.196-2.189,0.669-3.568,0.575c-1.374-0.09-11.968-1.822-11.968-1.822
		s-0.394,0.213-0.442,0.535c-0.042,0.316,0,2.678,0,2.909c0,0.229-0.009,1.048,0.357,1.15c0.606,0.155,11.522,2.085,12.168,2.181
		c0.638,0.093,2.357,0.109,3.744-0.287c0.646-0.185,2.359-0.681,4.21-1.209c0.077-0.113,0.168-0.223,0.252-0.34
		c-0.148-0.055-0.297-0.109-0.43-0.17C34.875,49.219,34.716,49.17,34.483,48.964z M47.101,44.901
		c-0.269,0.085-0.536,0.163-0.809,0.241c-0.287,0.095-0.578,0.183-0.873,0.27c0.606,0.189,1.195,0.451,1.739,0.799
		C47.146,45.822,47.124,45.357,47.101,44.901z"/>
	<path class="st6" d="M27.488,50.701c-0.54-0.071-11.735-2.078-12.034-2.137c-0.349-0.07-0.211-2.701-0.211-3.038
		c0-0.251,0.066-0.431,0.255-0.462c0,0,11.937,1.937,12.239,1.982c0.16,0.021,0.438,0.211,0.464,0.438
		C28.235,47.809,28.856,50.902,27.488,50.701z"/>
	<path class="st0" d="M14.951,33.817l0.042,3.059C13.441,36.785,13.399,33.947,14.951,33.817z"/>
	<path class="st0" d="M31.32,36.899c0-0.49,0.263-1.815,1.414-1.815c1.24,0,1.435,1.467,1.422,1.779
		c-0.014,0.416-0.184,2-1.243,1.988C31.583,38.84,31.32,37.435,31.32,36.899z"/>
	<path class="st2" d="M33.226,34.444c0.489,0.094,1.438,0.782,1.575,1.64c0.093,0.626,0.248-0.426,0.898-0.573
		c0.593-0.14,0.555,0.314,0.82,0.444c0.264,0.132,0.069-0.791-0.553-1.251c-0.615-0.468-1.258-0.672-2.707-0.57
		C33.083,34.15,32.946,34.39,33.226,34.444z"/>
	<path class="st1" d="M52.272,27.354c1.027-0.265,4.24-0.81,5.998-0.19c0.65,0.226,1.009,0.748,0.64,1.291
		c-0.451,0.685-1.94,2.044-2.441,2.117c-0.494,0.079,0.055-0.445,0.33-0.65c0.303-0.232,1.177-0.876,0.515-1.079
		c-1.106-0.344-4.809,0.118-4.809,0.118C52.404,28.459,52.388,27.734,52.272,27.354z"/>
	<path class="st1" d="M69.398,24.125c-0.671-0.763-1.619-0.986-2.622-0.943c-1.606,0.065-4.68,1.262-7.76,7.381
		c-0.231,0.459,4.135-0.77,5.052-2.668c1.514-3.096,1.795-3.672,3.179-3.851c1.161-0.153,1.58,0.294,2.027,0.562
		C69.709,24.885,69.78,24.563,69.398,24.125z"/>
	<path class="st2" d="M77.457,39.151c-0.041-5.086-0.728-8.278-1.709-8.095c-0.976,0.182-1.674,5.787-1.546,9.012
		c0.169,4.757,0.731,8.448,1.737,7.983C76.961,47.589,77.495,44.242,77.457,39.151z M75.33,41.256
		c-0.191,0.083-0.288-0.611-0.331-1.499c-0.015-0.606,0.111-1.656,0.294-1.691c0.189-0.036,0.308,0.562,0.327,1.521
		C75.629,40.539,75.522,41.17,75.33,41.256z M76.479,40.27c-0.067,0.456-0.325,0.436-0.305-0.047
		c0.052-0.792,0.177-6.499-1.385-5.179c-0.242,0.148,0.086-1.399,0.247-2.047c0.088-0.357,0.243-0.856,0.365-0.948
		c0.137-0.094,0.421,0.2,0.556,0.418C76.588,33.442,77.148,36.28,76.479,40.27z M76.911,36.253c0-0.548-0.116-2.083-0.394-3.015
		c-0.227-0.723-0.565-1.292-0.868-1.508c-0.105-0.073-0.02-0.269,0.099-0.276c0.124-0.007,0.848,0.762,1.119,2.543
		c0.136,0.945,0.182,1.875,0.176,2.256C77.042,36.471,76.911,36.463,76.911,36.253z"/>
	<path d="M79.301,40.84l0.022-0.032L79.301,40.84z"/>
	<path class="st8" d="M68.786,26.94c-0.064-0.114,0.245-0.217,0.902-0.354c0.645-0.137,4.201-0.674,4.627-0.731
		c0.445-0.055,0.993-0.136,0.993,0c0,0.141-0.047,0.353-0.299,0.416c-0.264,0.074-4.647,0.958-5.02,1.042
		C69.536,27.418,68.827,27.035,68.786,26.94z"/>
	<path class="st5" d="M68.188,25.812"/>
	<path class="st8" d="M68.059,25.918c-0.131-0.012-0.269-0.027-0.131-0.051c0.131-0.026,1.899-0.329,2.894-0.266
		c0.99,0.066,0.695,0.163,0.695,0.163s-1.13,0.299-1.313,0.341c-0.182,0.04-0.313,0.015-0.59-0.011
		C69.312,26.063,68.55,25.977,68.059,25.918z"/>
	<path class="st8" d="M65.975,27.39c0.455-0.012,3.559,1.299,3.638,1.34c0.084,0.038,0.03,0.148-0.066,0.215
		c-0.102,0.062-0.796,0.423-0.891,0.474c-0.106,0.055-0.182,0.026-0.372-0.039c-0.177-0.068-2.523-1.433-2.647-1.5
		c-0.113-0.067-0.113-0.156,0.083-0.33C65.921,27.378,65.975,27.39,65.975,27.39z"/>
	<path class="st8" d="M67.627,31.022c-0.202,0.099-0.336,0.173-0.222,0.292c0.124,0.121,0.67,0.543,0.805,0.648
		c0.244,0.201,0.504,0.106,0.805-0.08c0.293-0.187,4.313-2.184,4.683-2.399c0.158-0.095,0.179-0.226,0.179-0.289
		c0-0.067,0.051-0.481,0.051-0.533c0-0.05,0.016-0.195-0.282-0.095C73.345,28.679,67.79,30.945,67.627,31.022z"/>
	<path class="st8" d="M64.103,32.278c-0.118-0.089-0.167-0.159-0.1-0.371c0.061-0.212,0.233-0.63,0.247-0.701
		c0.013-0.066,0.126-0.158,0.278-0.032c0.199,0.162,3.723,2.338,3.947,2.5c0.21,0.155,0.44,0.262,0.276,0.449
		c-0.162,0.185-1.104,0.85-1.213,0.917c-0.277,0.164-0.494,0.067-0.678-0.133C66.682,34.708,64.103,32.278,64.103,32.278z"/>
	<path class="st8" d="M66.582,37.525c-0.115-0.074-0.378-0.246-0.068-0.45c0.318-0.195,5.708-3.272,5.892-3.351
		c0.184-0.079,0.54-0.376,0.55-0.158c0,0.108,0.022,0.932,0.031,1.039c0.016,0.111-0.139,0.239-0.352,0.394
		c-0.173,0.118-4.218,2.954-4.386,3.098c-0.162,0.146-0.522,0.305-0.737,0.146C67.291,38.085,66.582,37.525,66.582,37.525z"/>
	<path class="st8" d="M62.975,37.274c0,0.16-0.061,0.29,0.101,0.461c0.158,0.172,3.968,3.645,4.065,3.695
		c0.105,0.061,0.233,0.11,0.449-0.019c0.213-0.137,0.694-0.692,0.843-0.826c0.155-0.133,0.02-0.211-0.131-0.316
		c-0.147-0.107-4.648-3.377-4.784-3.457c-0.125-0.083-0.366-0.195-0.429,0.012C63.026,37.052,62.975,37.274,62.975,37.274z"/>
	<path class="st8" d="M66.582,44.121c-0.163-0.098-0.163-0.236,0.083-0.409c0.245-0.169,5.213-3.973,5.389-4.077
		c0.189-0.109,0.271-0.133,0.299-0.044c0.037,0.099,0.087,0.991,0.087,1.206c0.004,0.095-0.045,0.252-0.197,0.4
		c-0.14,0.129-3.654,3.377-3.789,3.484c-0.136,0.104-0.447,0.371-0.742,0.252C67.406,44.814,66.647,44.164,66.582,44.121z"/>
	<path class="st8" d="M63.09,42.614c-0.022,0.124,0,0.638,0,0.741c0.011,0.252,0.517,0.672,0.813,0.953
		c0.296,0.279,3.502,2.896,3.755,3.033c0.251,0.134,0.377,0.134,0.479,0.079c0.097-0.052,0.619-0.502,0.716-0.583
		c0.094-0.078,0.094-0.201-0.082-0.332c-0.182-0.131-5.327-3.881-5.425-3.975C63.234,42.438,63.127,42.438,63.09,42.614z"/>
	<path class="st8" d="M68.076,49.527c-0.101-0.063,0.032-0.161,0.274-0.277c0.252-0.117,4.398-3.062,4.583-3.195
		c0.184-0.13,0.237-0.234,0.283-0.117c0.042,0.117,0.21,0.981,0.248,1.083c0.029,0.107-0.018,0.225-0.222,0.384
		c-0.194,0.166-3.221,2.596-3.435,2.721c-0.21,0.117-0.533,0.184-0.808,0.039C68.713,50.02,68.17,49.59,68.076,49.527z"/>
	<path class="st8" d="M63.889,48.281c-0.031,0.103-0.024,0.434,0.027,0.541c0.055,0.102,1.357,1.064,2.564,1.796
		c1.208,0.728,2.749,1.491,2.882,1.465c0.126-0.028,0.331-0.108,0.445-0.177c0.113-0.062,0.278-0.306,0.164-0.34
		c-0.115-0.039-5.27-2.991-5.51-3.156c-0.221-0.154-0.348-0.227-0.446-0.206C63.916,48.212,63.903,48.212,63.889,48.281z"/>
	<path class="st8" d="M69.547,52.604c-0.159,0.059-0.171,0.129-0.121,0.27c0.05,0.127,0.108,0.271,0.171,0.313
		c0.062,0.039,0.166,0.1,0.284,0.079c0.706-0.122,3.02-1.164,3.489-1.419c0.371-0.202,0.36-0.252,0.297-0.409
		c-0.05-0.122-0.214-0.49-0.338-0.555c-0.11-0.068-0.35,0.007-0.569,0.141C72.544,51.152,69.547,52.604,69.547,52.604z"/>
	<path class="st9" d="M74.547,37.877c-0.082,0.407-0.092,0.61-0.119,0.991c-0.027,0.351,0.002,0.634,0.109,0.643
		c0.145,0.007,0.264,0.076,0.26-0.155c-0.008-0.438,0.049-1.023,0.166-1.389c0.078-0.208,0.053-0.227-0.067-0.309
		C74.772,37.577,74.621,37.451,74.547,37.877z"/>
	<path class="st9" d="M75.699,47.451c0.792-0.423,1.205-2.027,1.286-4.607c0.003-0.418,0.241-0.305,0.221-0.008
		c-0.108,1.473-0.259,4.426-1.458,4.922C75.601,47.82,75.535,47.541,75.699,47.451z"/>
	<path class="st9" d="M75.365,47.033c0.795-0.424,1.2-2.027,1.287-4.607c0.005-0.414,0.241-0.301,0.215-0.007
		c-0.106,1.479-0.257,4.423-1.455,4.923C75.28,47.404,75.199,47.123,75.365,47.033z"/>
	<path class="st9" d="M20.729,31.298c-0.09,0.045-0.085,0.108,0.305,0.167c0.387,0.054,5.816,0.47,5.98,0.47
		c0.166,0,0.181-0.213,0.057-0.278c-0.283-0.138-4.339-0.533-4.921-0.533C21.559,31.125,20.837,31.238,20.729,31.298z"/>
	<path class="st9" d="M21.119,33.19c-0.092,0.044-0.084,0.108,0.303,0.163c0.39,0.054,5.397,0.45,5.566,0.45
		c0.164,0,0.178-0.221,0.054-0.283c-0.276-0.136-4.226-0.445-4.812-0.445C21.647,33.074,21.229,33.133,21.119,33.19z"/>
	<path class="st9" d="M21.438,35.093c-0.088,0.043-0.081,0.114,0.307,0.165c0.389,0.06,5.12,0.447,5.288,0.447
		c0.164,0,0.176-0.216,0.054-0.278c-0.281-0.139-4.23-0.446-4.814-0.446S21.551,35.034,21.438,35.093z"/>
	<path class="st9" d="M21.647,37.193c-0.093,0.046-0.088,0.113,0.304,0.167c0.387,0.059,4.868,0.446,5.037,0.446
		c0.164,0,0.178-0.214,0.054-0.281c-0.276-0.136-4.226-0.441-4.812-0.441C21.897,37.084,21.756,37.138,21.647,37.193z"/>
	<path class="st9" d="M21.733,38.946c-0.091,0.042-0.086,0.109,0.302,0.168c0.389,0.055,4.784,0.442,4.953,0.442
		c0.164,0,0.178-0.215,0.054-0.277c-0.276-0.141-4.226-0.446-4.812-0.446C21.897,38.833,21.841,38.89,21.733,38.946z"/>
	<path class="st9" d="M21.733,40.669c-0.091,0.046-0.086,0.116,0.302,0.171c0.389,0.052,4.784,0.442,4.953,0.442
		c0.164,0,0.178-0.215,0.054-0.276c-0.276-0.143-4.226-0.447-4.812-0.447C21.897,40.559,21.841,40.616,21.733,40.669z"/>
	<path class="st9" d="M21.733,42.398c-0.091,0.039-0.086,0.105,0.302,0.164c0.389,0.057,4.784,0.443,4.953,0.443
		c0.164,0,0.178-0.213,0.054-0.279c-0.276-0.137-4.226-0.439-4.812-0.439C21.897,42.287,21.841,42.34,21.733,42.398z"/>
	<path class="st9" d="M17.411,30.992c-0.059,0.058-0.043,0.151,0.046,0.151c0.087,0,2.494,0.243,2.583,0.243
		c0.087,0-0.066-0.266-0.154-0.331C19.793,30.992,17.481,30.926,17.411,30.992z"/>
	<path class="st9" d="M17.411,32.889c-0.059,0.06-0.043,0.155,0.046,0.155c0.087,0,2.936,0.285,3.021,0.285
		c0.089,0,0.07-0.262-0.02-0.332C20.371,32.933,17.481,32.824,17.411,32.889z"/>
	<path class="st9" d="M17.411,34.808c-0.059,0.062-0.043,0.151,0.046,0.151c0.087,0,3.31,0.291,3.4,0.291
		c0.087,0,0.065-0.246-0.02-0.308C20.749,34.876,17.481,34.743,17.411,34.808z"/>
	<path class="st9" d="M17.411,36.929c-0.059,0.06-0.043,0.149,0.046,0.149c0.087,0,3.487,0.267,3.575,0.267
		c0.092,0,0.092-0.243,0-0.307C20.944,36.969,17.481,36.86,17.411,36.929z"/>
	<path class="st9" d="M17.411,38.628c-0.059,0.06-0.043,0.153,0.046,0.153c0.266,0,3.842,0.283,3.754,0.283
		c0.088,0,0.088-0.283,0-0.354C21.124,38.648,17.481,38.562,17.411,38.628z"/>
	<path class="st9" d="M17.411,40.414c-0.059,0.062-0.043,0.152,0.046,0.152c0.266,0,3.842,0.289,3.754,0.289
		c0.088,0,0.088-0.289,0-0.352C21.124,40.438,17.481,40.348,17.411,40.414z"/>
	<path class="st9" d="M17.411,42.113c-0.059,0.062-0.043,0.152,0.046,0.152c0.266,0,3.842,0.291,3.754,0.291
		c0.088,0,0.088-0.291,0-0.359C21.124,42.136,17.481,42.046,17.411,42.113z"/>
	<path class="st9" d="M33.574,34.189c-0.312-0.003-0.514,0.085,0.009,0.263c0.271,0.099,0.643,0.435,0.831,0.564
		c0.308,0.214,0.455-0.235,0.468-0.409C34.906,34.264,34.75,34.207,33.574,34.189z"/>
	<path d="M38.805,24.254c0,0.005,0,0.02,0,0.023V24.254z"/>
	<path class="st7" d="M39.628,24.701c-0.004,0.012,0.191,0.117,0.662,0.117l0.017,7.376c-0.224,0-0.573-0.059-0.693-0.177
		L39.628,24.701z"/>
	<path class="st7" d="M39.628,9.288c0.006-0.003,0.235,0.139,0.662,0.139v4.149c-0.311,0-0.676-0.042-0.676-0.207L39.628,9.288z"/>
	<path class="st7" d="M38.71,13.964V24c0.282,0.298,1.253,0.345,1.445,0.345V14.183C39.663,14.183,39.04,14.155,38.71,13.964z"/>
	<path class="st7" d="M39.289,8.743c0.209,0.104,0.42,0.19,0.725,0.19V6.045c-0.326,0-0.725-0.136-0.725-0.136V8.743z"/>
	<path class="st7" d="M37.718,36.613c-0.047,0.603,0.238,1.116,1.203,1.116c0.704,0,2.424-0.376,2.483-1.828
		c0.005-0.174-0.017-2.737-0.017-2.848c-0.449,0.451-1.744,0.462-2.154,0.045c0,0,0.008,1.674,0.008,1.827
		c0,0.151,0.051,0.831-0.561,0.862C38.003,35.821,37.743,36.182,37.718,36.613z"/>
	<path class="st7" d="M42.425,21.264c0-0.193,0.249-1.233,1.193-1.233c0.095,0,0.147,0.145,0.047,0.203
		c-0.101,0.067-0.402,0.889-0.402,0.989c0,0.103-0.083,0.14-0.153,0.149c-0.079,0.02-0.522,0-0.601,0
		C42.438,21.372,42.425,21.326,42.425,21.264z"/>
	<path class="st7" d="M43.09,24.599c0,0.091,0.155,0.204,0.282,0.204c0.125,0,0.246-0.126,0.246-0.227
		c0-0.102-0.017-2.635-0.017-2.702c0-0.062-0.133-0.085-0.245-0.085c-0.111,0-0.266,0-0.266,0.097
		C43.09,21.989,43.09,24.5,43.09,24.599z"/>
	<path class="st7" d="M43.342,32.592c0-0.263-0.028-0.626,0.231-0.626c0.267,0,0.887-0.067,1.06,0.028
		c0.26,0.146,0.491,0.712,0.973,0.75c0.497,0.04,0.569,0,0.759,0.115c0.186,0.108,0.149,0.375,0.149,0.643
		c0,0.262,0.036,0.901,0.036,1.055c0,0.15-0.186,0.376-0.448,0.376c-0.26,0-2.187,0-2.339,0c-0.149,0-0.304-0.191-0.304-0.34
		C43.458,34.444,43.342,32.592,43.342,32.592z"/>
	<path class="st7" d="M39.167,38.538c0.303,0.227,0.48,0.675,0.48,1.078c0,0.4-0.11,0.928-0.284,1.104
		c-0.092,0.088-0.115,0.183,0.364,0.108c0.482-0.082,2.333-0.348,2.451-0.367c0.516-0.074,0.676-0.844,0.626-1.39
		c-0.052-0.525-0.354-1.093-1.034-1.054c-0.703,0.04-2.478,0.29-2.678,0.32C38.952,38.354,39.04,38.441,39.167,38.538z"/>
	<path class="st7" d="M34.738,32.588c-0.317-0.176-0.749,0.173-0.605,0.43c0.113,0.204,0.55,0.607,1.208,0.747
		c0.668,0.15,1.788,0.119,2.252,0.119c0.69,0,0.681-0.887,0.021-0.833c-0.743,0.054-1.724,0.023-2.044-0.057
		C35.256,32.907,34.738,32.588,34.738,32.588z"/>
	<path class="st7" d="M42.824,35.897c-0.17,0.043-0.231,0.261-0.086,0.375c0.148,0.114,0.969,0.485,0.714,1.985
		c-0.028,0.177-0.028,0.408,0.175,0.432c0.197,0.03,0.233-0.082,0.317-0.519c0.084-0.43,0-1.521-0.456-1.94
		C43.197,35.963,42.946,35.861,42.824,35.897z"/>
	<path class="st7" d="M43.605,35.521c-0.172,0.031-0.249,0.242-0.117,0.367c0.145,0.127,0.775,0.348,0.759,2.06
		c-0.005,0.174-0.062,0.399,0.143,0.44c0.199,0.046,0.273-0.009,0.304-0.425c0.024-0.44-0.015-1.621-0.446-2.065
		C43.979,35.607,43.728,35.492,43.605,35.521z"/>
	<path class="st7" d="M47.809,33.339c-0.033,0.478,0,1.156,0,1.398c0,0.244-0.043,0.76,0.686,1.438
		c0.714,0.686,3.222,2.963,3.392,3.118c0.26,0.232,0.363,0.533,0.378,1.014c0.003,0.31,0.14,0.463,0.374,0.463
		c0.239,0,0.431-0.215,0.413-0.512c-0.042-0.443,0.08-0.647-0.605-1.395c-0.521-0.564-2.918-2.724-3.238-3.045
		c-0.323-0.321-0.597-0.521-0.64-1.121c-0.043-0.599-0.043-0.959-0.043-1.358C48.525,32.94,47.846,32.777,47.809,33.339z"/>
	<path class="st6" d="M66.111,23.405c0.391-0.125,0.599,0.24,0.202,0.436c-0.505,0.249-1.463,1.239-1.75,1.866
		c-0.473,1.01-1.116,2.806-2.219,3.44c-1.087,0.634-1.993,0.963-2.422,1.136c-0.471,0.187-0.687,0.23-0.4-0.349
		C59.813,29.361,62.441,24.604,66.111,23.405z"/>
	<path class="st8" d="M36.223,67.338c0.682,0.713,1.084,0.723,1.287,0.591c0.208-0.128,0.187-0.31-0.15-0.97
		c-3.624-7,0.185-14.802,1.183-16.057c2.234-2.797,4.327-3.745,5.585-4.221c0.817-0.31,0.879-0.166,0.817-0.356
		c-0.059-0.19-0.615-0.341-1.281-0.345c-0.666-0.004-1.336,0.07-1.738,0.154c-2.745,0.547-7.302,4.305-7.934,10.84
		C33.486,62.214,34.441,65.455,36.223,67.338z"/>
	<path class="st2" d="M44.446,49.87c-4.312,0.263-5.557,6.836-5.583,9.831c-0.007,0.696-0.024,6.419,3.788,6.26
		c4.754-0.196,5.726-7.665,5.801-9.278C48.519,55.539,48.465,49.624,44.446,49.87z M39.934,60.021
		c-0.609-0.654-0.251-2.96,0.025-3.739c0.259-0.728,0.887-0.685,1.039-0.532c0.154,0.154,0.493,0.697,0.407,1.019
		c-0.09,0.38-0.354,1.272-0.354,2.263C41.049,59.234,40.312,60.429,39.934,60.021z M43.184,62.795
		c-0.28,0.229-0.784,0.734-1.624,0.582c-0.303-0.053-1.09-0.561-0.458-1.089c0.631-0.534,0.814-1.202,1.118-1.202
		c0.307,0,0.684,0.588,0.816,0.767C43.16,62.029,43.466,62.562,43.184,62.795z M43.949,54.15c-0.331,0.177-0.54,0.255-0.789,0.177
		c-0.392-0.114-0.422-1.348-0.386-1.677c0.059-0.434,0.291-0.538,0.76-0.538c0.493,0,1.253,0.257,1.306,0.538
		C44.887,52.928,44.281,53.973,43.949,54.15z M45.39,60.197c-0.146,0.081-0.377-0.152-0.299-0.555
		c0.386-0.023,0.692-0.182,0.692-0.182S45.551,60.124,45.39,60.197z M46.333,57.605c-0.072,0.256-0.122-0.199-0.379-0.406
		c-0.253-0.199-0.892-0.177-0.662-0.48c0.284-0.232,0.718-0.718,0.891-0.663C46.365,56.109,46.416,57.356,46.333,57.605z"/>
	<path class="st9" d="M41.524,64.209c1.022,0,3.108,0.115,4.517-3.882c0.17-0.49,0.473-0.872,0.799-0.757
		c0.4,0.145,0.29,0.689,0.081,1.301c-0.194,0.615-1.253,2.897-2.543,3.512C43.09,64.992,42.194,64.855,41.524,64.209z"/>
	<path class="st7" d="M53.934,41.567c0,0,0-0.378-0.752-0.253c-0.757,0.125-19.377,5.656-19.377,5.656
		c-0.338,0.035-0.375,0.535-0.375,0.666c0,0.125,0.082,0.414,0.625,0.414c0.06,0,0.312-0.063,0.712-0.168
		c0.003,0.149,0.036,0.418,0.211,0.591c0.122,0.122,0.55,0.292,0.96,0.435c0.13-0.156,0.259-0.312,0.389-0.463
		c-0.386-0.16-0.589-0.299-0.721-0.348c-0.137-0.055-0.149-0.274-0.142-0.414c0.629-0.18,1.44-0.416,2.359-0.694
		c1.353-1.093,2.864-1.797,4.424-1.922l0,0c0.243-0.015,0.468-0.026,0.703-0.026c0.367,0,0.72,0.026,1.078,0.074
		c4.743-1.443,9.429-2.878,9.656-2.922C54.149,42.113,53.934,41.567,53.934,41.567z"/>
	<path class="st6" d="M42.632,24.728c0,0,0-0.14,0-0.352c-0.142,0-0.314,0-0.499,0c-0.04,0.146-0.196,0.384-0.827,0.58v0.25
		c0.627-0.021,1.143-0.032,1.564-0.043C42.732,25.053,42.632,24.912,42.632,24.728z M38.145,24.422
		c-6.074,0.107-15.435,0.36-16.852,0.674c-3.301,0.728-5.08,2.993-5.07,4.201c0.029-0.205,0.353-0.902,3.526-0.73
		c0.735,0.045,0.951-0.288,0.981-0.823c0.03-0.645,1.6-2.025,2.96-2.05c2.472-0.059,10.284-0.277,15.422-0.426
		c0-0.167,0-0.282,0-0.328C38.445,24.782,38.212,24.576,38.145,24.422z"/>
	<path class="st8" d="M14.916,43.185v-1.286c-8.913-0.291-10.848,9.897-8.742,14.325c0.3,0.627,0.474,0.874,0.64,0.799
		c0.166-0.069,0.04-0.37-0.098-0.911C5.123,49.979,8.793,43.066,14.916,43.185z"/>
</g>
</svg>
